<svg xmlns="http://www.w3.org/2000/svg" width="219" height="70" fill="none"><g clip-path="url(#a)"><mask id="b" width="219" height="70" x="0" y="0" maskUnits="userSpaceOnUse" style="mask-type:luminance"><path fill="#fff" d="M219 0H0v70h219V0Z"/></mask><g mask="url(#b)"><path fill="#8EE159" d="M59 38.5a29.54 29.54 0 0 1-6.697 18.715 29.63 29.63 0 0 1-4.088 4.09 29.573 29.573 0 0 1-12.96 6.129 29.322 29.322 0 0 1-5.756.566 29.37 29.37 0 0 1-5.754-.566 29.522 29.522 0 0 1-5.535-1.68 28.78 28.78 0 0 1-2.616-1.237c-.853-.455-1.68-.951-2.484-1.488a29.742 29.742 0 0 1-4.47-3.669 29.755 29.755 0 0 1-3.67-4.47 29.791 29.791 0 0 1-1.487-2.483 29.206 29.206 0 0 1-2.212-5.344 29.53 29.53 0 0 1-.705-2.807 29.529 29.529 0 0 1-.423-8.648c.093-.96.236-1.915.423-2.864a29.664 29.664 0 0 1 2.917-8.15A29.5 29.5 0 0 1 8.64 17.64a29.841 29.841 0 0 1 4.471-3.669 29.353 29.353 0 0 1 7.825-3.7 29.529 29.529 0 0 1 5.672-1.128 29.198 29.198 0 0 1 5.783 0 29.432 29.432 0 0 1 15.823 6.554 29.295 29.295 0 0 1 5.814 6.414c.537.802 1.033 1.63 1.488 2.483A29.468 29.468 0 0 1 59 38.5Z"/><mask id="c" width="56" height="70" x="7" y="0" maskUnits="userSpaceOnUse" style="mask-type:luminance"><path fill="#fff" d="M7.677 0H63v70H7.677V0Z"/></mask><g mask="url(#c)"><path fill="#1E5216" d="M38.556.685a.771.771 0 0 0-.49-.163l-7.794.576a.42.42 0 0 0-.207.347l-.376-.01s0-.001 0 0a.809.809 0 0 0 .083.377l.002.004.002.003v.001l.003.006.011.022.045.091a24.534 24.534 0 0 1 .737 1.741c.449 1.186.994 2.868 1.375 4.85.765 3.97.87 9.108-1.712 13.886a.77.77 0 0 0-.062.605c.06.2.188.365.38.47a.776.776 0 0 0 .6.064h.003l.002-.002a.775.775 0 0 0 .47-.383c2.601-4.815 2.737-9.8 2.138-13.761a28.873 28.873 0 0 0-2.077-7.183l5.741-.108c.147.65.477 2.226.712 4.21.289 2.442.43 5.473-.075 8.151-.502 2.657-2.046 5.403-3.521 7.541a36.737 36.737 0 0 1-2.815 3.584c-1.926-.64-3.162-1.008-4.355-1.218-1.243-.22-2.425-.266-4.27-.285h-.008c-4.586.014-9.636 1.417-12.49 6.396-1.625 2.839-2.196 6.363-2.023 10.09.173 3.73 1.092 7.69 2.474 11.426 1.382 3.737 3.229 7.272 5.326 10.145 2.092 2.867 4.455 5.103 6.88 6.2 6.25 2.83 11.153-.767 12.301-1.725 1.136.784 5.664 3.503 12.104 1.767.985-.264 1.976-.908 2.955-1.81.983-.904 1.976-2.087 2.962-3.462 1.972-2.758 3.907-6.35 5.446-10.223 1.54-3.873 2.705-8.042 3.083-11.951.378-3.904-.026-7.589-1.669-10.457-2.853-4.979-7.9-6.383-12.487-6.396-2.946-.01-5.763.536-7.838 1.083-1.04.273-1.896.547-2.495.754a24.969 24.969 0 0 0-.878.322h-.02l-.066.033-1.42.546-.018.006-.016.008a.547.547 0 0 0-.028.016l-.007.003-.075.036a16.444 16.444 0 0 0-1.243.683 17.64 17.64 0 0 0-2.86 2.153c-2.037 1.902-4.048 4.84-3.528 8.68.518 3.825 3.038 5.878 5.683 6.505 2.592.615 5.424-.007 6.758-1.72 1.306-1.673 1.184-4.148-.057-5.822a4.32 4.32 0 0 0-2.763-1.707c-1.186-.202-2.566.043-4.075.834l-.002.001a.775.775 0 0 0-.386.464.774.774 0 0 0 .053.604c.1.193.261.325.463.39h.003l.003.002a.782.782 0 0 0 .6-.056h.002c1.281-.673 2.3-.81 3.07-.677a2.698 2.698 0 0 1 1.758 1.088c.843 1.134.883 2.879.081 3.906-.377.483-1.108.906-2.051 1.139a6.68 6.68 0 0 1-3.09.012c-1.064-.253-2.073-.758-2.87-1.585-.793-.824-1.393-1.987-1.61-3.59-.428-3.158 1.198-5.59 3.037-7.31 1.744-1.629 3.59-2.512 3.76-2.591h.001l1.36-.526h.006l.067-.027.003-.001.01-.005.043-.016.171-.066a24 24 0 0 1 .658-.236c.57-.195 1.39-.456 2.383-.717 1.99-.522 4.662-1.038 7.419-1.03 4.291.014 8.631 1.258 11.117 5.598 1.406 2.456 1.792 5.81 1.434 9.527-.356 3.71-1.449 7.739-2.946 11.505-1.497 3.768-3.378 7.256-5.263 9.887-.94 1.313-1.888 2.402-2.764 3.204-.884.809-1.667 1.3-2.276 1.463-3.366.907-6.18.45-8.152-.233a12.74 12.74 0 0 1-2.291-1.048 9.25 9.25 0 0 1-.748-.49l-.025-.02-.01-.007-.008-.006-.002-.001-.003-.003-.004-.003a.797.797 0 0 0-.52-.166h-.007a.786.786 0 0 0-.506.218l-.002.002-.01.009c-.007.007-.02.02-.038.035a9.768 9.768 0 0 1-.794.623c-.554.391-1.358.883-2.357 1.286-1.993.806-4.752 1.255-7.862-.153-2.048-.927-4.22-2.964-6.227-5.705-2.001-2.733-3.812-6.135-5.148-9.745-1.336-3.612-2.195-7.413-2.358-10.94-.163-3.53.373-6.754 1.797-9.239 2.485-4.338 6.82-5.584 11.109-5.598 1.896.02 2.946.046 4.073.247 1.132.203 2.351.583 4.578 1.333h.003a.79.79 0 0 0 .442.023.79.79 0 0 0 .381-.228l.002-.002.003-.003.013-.014a31.831 31.831 0 0 0 .923-1.04 38.92 38.92 0 0 0 2.146-2.775c1.607-2.285 3.382-5.363 3.967-8.455.575-3.042.376-6.46.04-9.101a46.366 46.366 0 0 0-.738-4.21c-.025-.11-.045-.195-.06-.253l-.016-.066-.004-.017v-.005a.785.785 0 0 0-.289-.436Z"/><path stroke="#1E5216" stroke-width="2" d="m29.689 1.434.376.01a.42.42 0 0 1 .207-.347l7.793-.575a.771.771 0 0 1 .491.163c.14.108.242.254.288.436l.001.005.005.017a25.848 25.848 0 0 1 .076.32 46.366 46.366 0 0 1 .737 4.209c.336 2.64.535 6.06-.04 9.1-.585 3.093-2.36 6.17-3.967 8.456a38.92 38.92 0 0 1-2.145 2.774 31.831 31.831 0 0 1-.924 1.04l-.013.015-.003.003-.001.001M29.689 1.434a.809.809 0 0 0 .083.378l.002.004.002.003v.001l.003.006.011.022.045.091a24.534 24.534 0 0 1 .737 1.741c.449 1.186.994 2.868 1.375 4.85.765 3.97.87 9.108-1.712 13.886a.77.77 0 0 0-.062.605c.06.2.188.365.38.47a.776.776 0 0 0 .6.064h.003l.002-.002a.775.775 0 0 0 .47-.383c2.601-4.815 2.737-9.8 2.138-13.761a28.873 28.873 0 0 0-2.077-7.183l5.741-.108c.147.65.477 2.226.712 4.21.289 2.442.43 5.473-.075 8.151-.502 2.657-2.046 5.403-3.521 7.541a36.737 36.737 0 0 1-2.815 3.584c-1.926-.64-3.162-1.008-4.355-1.218-1.243-.22-2.425-.266-4.27-.285h-.008c-4.586.014-9.636 1.417-12.49 6.396-1.625 2.839-2.196 6.363-2.023 10.09.173 3.73 1.092 7.69 2.474 11.426 1.382 3.737 3.229 7.272 5.326 10.145 2.092 2.867 4.455 5.103 6.88 6.2 6.25 2.83 11.153-.767 12.301-1.725 1.136.784 5.664 3.503 12.104 1.767.985-.264 1.976-.908 2.955-1.81.983-.904 1.976-2.087 2.962-3.462 1.972-2.758 3.907-6.35 5.446-10.223 1.54-3.873 2.705-8.042 3.083-11.951.378-3.904-.026-7.589-1.669-10.457-2.853-4.979-7.9-6.383-12.487-6.396-2.946-.01-5.763.536-7.838 1.083-1.04.273-1.896.547-2.495.754a24.969 24.969 0 0 0-.878.322h-.02l-.066.033-1.42.546-.018.006-.016.008a.547.547 0 0 0-.028.016l-.007.003-.075.036a16.444 16.444 0 0 0-1.243.683 17.64 17.64 0 0 0-2.86 2.153c-2.037 1.902-4.048 4.84-3.528 8.68.518 3.825 3.038 5.878 5.683 6.505 2.592.615 5.424-.007 6.758-1.72 1.306-1.673 1.184-4.148-.057-5.822a4.321 4.321 0 0 0-2.763-1.707c-1.187-.202-2.566.043-4.075.834l-.002.001a.775.775 0 0 0-.386.464.774.774 0 0 0 .053.604c.1.193.261.325.463.39h.003l.003.002a.782.782 0 0 0 .6-.056h.002c1.281-.673 2.3-.81 3.07-.677a2.698 2.698 0 0 1 1.758 1.088c.843 1.134.883 2.879.081 3.906-.377.483-1.108.906-2.051 1.139a6.68 6.68 0 0 1-3.09.012c-1.064-.253-2.073-.758-2.87-1.585-.793-.824-1.393-1.987-1.61-3.59-.428-3.158 1.198-5.59 3.037-7.31 1.744-1.629 3.59-2.512 3.76-2.591h.001l1.36-.526h.006l.068-.027.002-.001.01-.005.043-.016.171-.066a24 24 0 0 1 .658-.236c.57-.195 1.39-.456 2.383-.717 1.99-.522 4.662-1.038 7.419-1.03 4.291.014 8.631 1.258 11.117 5.598 1.406 2.456 1.792 5.81 1.434 9.527-.356 3.71-1.449 7.739-2.946 11.505-1.497 3.768-3.378 7.256-5.263 9.887-.94 1.313-1.888 2.402-2.764 3.204-.884.809-1.667 1.3-2.276 1.463-3.366.907-6.18.45-8.152-.233a12.74 12.74 0 0 1-2.291-1.048 9.25 9.25 0 0 1-.748-.49l-.025-.02-.01-.007-.008-.006-.002-.002-.003-.002-.004-.003a.797.797 0 0 0-.52-.166h-.007a.786.786 0 0 0-.506.218l-.002.002-.01.009c-.007.007-.02.02-.038.035a9.768 9.768 0 0 1-.794.623c-.554.391-1.358.883-2.357 1.286-1.993.806-4.752 1.255-7.862-.153-2.048-.927-4.22-2.964-6.227-5.705-2.001-2.733-3.812-6.135-5.148-9.745-1.336-3.612-2.195-7.413-2.358-10.94-.163-3.53.373-6.754 1.797-9.239 2.485-4.338 6.82-5.584 11.109-5.598 1.896.02 2.946.046 4.073.247 1.132.203 2.351.583 4.578 1.333h.003a.79.79 0 0 0 .442.023.791.791 0 0 0 .382-.229M29.689 1.434Zm2.88 25.627Z"/></g><path fill="#163B21" d="M71.464 39.512c-.405 0-.832-.032-1.28-.096-.427-.064-.725-.139-.896-.224v-.8c.49-.107 1.056-.384 1.696-.832.661-.47 1.419-1.365 2.272-2.688l3.04-4.832c-.79-.17-1.59-.49-2.4-.96a6.545 6.545 0 0 1-1.984-1.92c-.533-.81-.8-1.781-.8-2.912 0-1.323.277-2.4.832-3.232a5.872 5.872 0 0 1 2.176-1.92 10.135 10.135 0 0 1 2.848-.928 14.872 14.872 0 0 1 2.784-.288h8.832v.96h-.32c-.96 0-1.579.299-1.856.896-.256.576-.384 1.344-.384 2.304V39h-4.192v-8.704h-1.408l-2.88 4.576c-1.088 1.728-2.112 2.933-3.072 3.616-.96.683-1.963 1.024-3.008 1.024Zm8.448-10.496h1.92v-9.632l-.64-.096a5.063 5.063 0 0 0-.672-.096 9.258 9.258 0 0 0-.768-.032c-.619 0-1.259.181-1.92.544-.64.363-1.173.907-1.6 1.632-.427.725-.64 1.643-.64 2.752 0 1.13.213 2.07.64 2.816.448.725 1.003 1.259 1.664 1.6a4.352 4.352 0 0 0 2.016.512ZM92.102 39V22.04c0-.96-.138-1.728-.416-2.304-.256-.597-.864-.896-1.824-.896h-.32v-.96h14.049c.746 0 1.312.128 1.696.384.384.235.65.555.8.96.149.384.224.79.224 1.216v2.72h-.96c0-1.387-.352-2.368-1.056-2.944-.683-.597-1.664-.896-2.944-.896h-5.088v7.52h2.88c1.152 0 2.282.085 3.392.256 1.13.15 2.144.437 3.04.864a5.143 5.143 0 0 1 2.176 1.856c.554.79.832 1.824.832 3.104s-.278 2.325-.832 3.136c-.534.79-1.259 1.397-2.176 1.824-.896.427-1.91.725-3.04.896-1.11.15-2.24.224-3.392.224h-7.04Zm6.4-1.28h.16c1.921 0 3.307-.373 4.161-1.12.853-.768 1.28-1.995 1.28-3.68s-.427-2.901-1.28-3.648c-.854-.768-2.24-1.152-4.16-1.152h-.16c-.64 0-1.174.053-1.6.16l-.64.16v8.96c.106.021.213.053.32.096l.32.064a7.25 7.25 0 0 0 1.6.16Zm12.193 1.76a5.58 5.58 0 0 1-1.088-.096 4.004 4.004 0 0 1-.832-.192V38.2a4.355 4.355 0 0 0 1.536-.64c.512-.341.982-.853 1.408-1.536.427-.683.8-1.61 1.12-2.784.32-1.195.566-2.699.736-4.512.171-1.835.256-4.064.256-6.688 0-.96-.138-1.728-.416-2.304-.256-.597-.864-.896-1.824-.896h-.32v-.96h17.12V39h-4.16V19.32h-6.912v2.72c0 3.392-.17 6.219-.512 8.48-.32 2.24-.778 4.021-1.376 5.344-.576 1.301-1.269 2.23-2.08 2.784a4.605 4.605 0 0 1-2.656.832Zm31.612.16c-2.112 0-3.968-.49-5.568-1.472a10.31 10.31 0 0 1-3.68-4.032c-.875-1.685-1.312-3.584-1.312-5.696 0-2.112.437-4.01 1.312-5.696.874-1.685 2.101-3.019 3.68-4 1.6-1.003 3.456-1.504 5.568-1.504 2.133 0 3.978.501 5.536 1.504 1.578.981 2.805 2.315 3.68 4 .874 1.685 1.312 3.584 1.312 5.696 0 2.112-.438 4.01-1.312 5.696a10.325 10.325 0 0 1-3.68 4.032c-1.558.981-3.403 1.472-5.536 1.472Zm0-1.44c1.941 0 3.445-.843 4.512-2.528 1.066-1.707 1.6-4.117 1.6-7.232s-.534-5.515-1.6-7.2c-1.067-1.707-2.571-2.56-4.512-2.56-1.942 0-3.446.853-4.512 2.56-1.046 1.685-1.568 4.085-1.568 7.2s.522 5.525 1.568 7.232c1.066 1.685 2.57 2.528 4.512 2.528Zm26.1.8v-8.32c-.491.213-1.11.373-1.856.48-.726.107-1.483.16-2.272.16-2.582 0-4.566-.565-5.952-1.696-1.387-1.152-2.08-2.933-2.08-5.344v-2.24c0-.96-.139-1.728-.416-2.304-.256-.597-.864-.896-1.824-.896h-.32v-.96h3.84c1.13 0 1.888.299 2.272.896.405.597.608 1.685.608 3.264v2.56c0 1.77.426 3.093 1.28 3.968.853.875 1.92 1.312 3.2 1.312.661 0 1.29-.053 1.888-.16a10.567 10.567 0 0 0 1.632-.48V17.88h4.16V39h-4.16Zm26.723.32c-.79 0-1.59-.096-2.4-.288-.811-.192-1.664-.565-2.56-1.12-.875-.555-1.824-1.365-2.848-2.432l-5.152-5.376V39h-4.16l-.032-16.96c0-.96-.139-1.728-.416-2.304-.256-.597-.864-.896-1.824-.896h-.32v-.96h3.84c1.109 0 1.866.299 2.272.896.426.597.64 1.685.64 3.264v6.08l5.536-6.88a11.298 11.298 0 0 1 2.4-2.336c.917-.683 2.005-1.024 3.264-1.024h2.24V19c-1.216 0-2.315.16-3.296.48-.982.299-1.835.896-2.56 1.792l-4.768 5.888 7.392 7.68c.533.576 1.109 1.12 1.728 1.632a13.7 13.7 0 0 0 1.856 1.216c.597.299 1.098.48 1.504.544V39c-.235.085-.566.16-.992.224a8.664 8.664 0 0 1-1.344.096Zm11.677.32c-2.112 0-3.968-.49-5.568-1.472a10.31 10.31 0 0 1-3.68-4.032c-.875-1.685-1.312-3.584-1.312-5.696 0-2.112.437-4.01 1.312-5.696.874-1.685 2.101-3.019 3.68-4 1.6-1.003 3.456-1.504 5.568-1.504 2.133 0 3.978.501 5.536 1.504 1.578.981 2.805 2.315 3.68 4 .874 1.685 1.312 3.584 1.312 5.696 0 2.112-.438 4.01-1.312 5.696a10.325 10.325 0 0 1-3.68 4.032c-1.558.981-3.403 1.472-5.536 1.472Zm0-1.44c1.941 0 3.445-.843 4.512-2.528 1.066-1.707 1.6-4.117 1.6-7.232s-.534-5.515-1.6-7.2c-1.067-1.707-2.571-2.56-4.512-2.56-1.942 0-3.446.853-4.512 2.56-1.046 1.685-1.568 4.085-1.568 7.2s.522 5.525 1.568 7.232c1.066 1.685 2.57 2.528 4.512 2.528ZM73.744 57V45.8h1.312l5.024 8.464h-.704l4.96-8.464h1.312l.016 11.2h-1.536l-.016-8.784h.368l-4.416 7.424h-.736l-4.448-7.424h.4V57h-1.536Zm20.446.128a6.484 6.484 0 0 1-2.384-.432 5.765 5.765 0 0 1-1.888-1.2 5.666 5.666 0 0 1-1.248-1.824 5.681 5.681 0 0 1-.448-2.272c0-.821.15-1.579.448-2.272a5.486 5.486 0 0 1 1.248-1.808 5.635 5.635 0 0 1 1.888-1.216 6.404 6.404 0 0 1 2.384-.432c.854 0 1.638.144 2.352.432a5.438 5.438 0 0 1 1.888 1.2c.544.512.96 1.115 1.248 1.808.299.693.448 1.456.448 2.288 0 .832-.15 1.595-.448 2.288a5.35 5.35 0 0 1-1.248 1.824 5.767 5.767 0 0 1-1.888 1.2 6.45 6.45 0 0 1-2.352.416Zm0-1.424c.619 0 1.19-.107 1.712-.32a4.044 4.044 0 0 0 1.376-.896c.395-.395.699-.853.912-1.376a4.3 4.3 0 0 0 .336-1.712 4.3 4.3 0 0 0-.336-1.712 3.967 3.967 0 0 0-.912-1.36 3.93 3.93 0 0 0-1.376-.912 4.489 4.489 0 0 0-1.712-.32c-.63 0-1.21.107-1.744.32a4.134 4.134 0 0 0-1.376.912 4.163 4.163 0 0 0-.928 1.36 4.486 4.486 0 0 0-.32 1.712c0 .619.107 1.19.32 1.712.224.523.534.981.928 1.376a4.26 4.26 0 0 0 1.376.896c.534.213 1.115.32 1.744.32Zm7.682 1.424c-.16 0-.32-.01-.48-.032a6.25 6.25 0 0 1-.528-.096l.112-1.424c.171.043.342.064.512.064.47 0 .843-.187 1.12-.56.278-.373.48-.939.608-1.696.139-.757.23-1.712.272-2.864l.176-4.72h7.888V57h-1.568V46.776l.384.416h-5.68l.352-.432-.128 3.712a26.462 26.462 0 0 1-.224 2.912c-.117.832-.293 1.525-.528 2.08-.234.555-.538.97-.912 1.248-.362.277-.821.416-1.376.416Zm18.209 0a6.486 6.486 0 0 1-2.384-.432 5.766 5.766 0 0 1-1.888-1.2 5.68 5.68 0 0 1-1.248-1.824 5.676 5.676 0 0 1-.448-2.272c0-.821.149-1.579.448-2.272a5.498 5.498 0 0 1 1.248-1.808 5.636 5.636 0 0 1 1.888-1.216 6.403 6.403 0 0 1 2.384-.432c.853 0 1.637.144 2.352.432a5.437 5.437 0 0 1 1.888 1.2c.544.512.96 1.115 1.248 1.808.299.693.448 1.456.448 2.288 0 .832-.149 1.595-.448 2.288a5.35 5.35 0 0 1-1.248 1.824 5.766 5.766 0 0 1-1.888 1.2 6.452 6.452 0 0 1-2.352.416Zm0-1.424c.619 0 1.189-.107 1.712-.32a4.047 4.047 0 0 0 2.288-2.272 4.3 4.3 0 0 0 .336-1.712 4.3 4.3 0 0 0-.336-1.712 3.956 3.956 0 0 0-.912-1.36 3.933 3.933 0 0 0-1.376-.912 4.488 4.488 0 0 0-1.712-.32c-.629 0-1.211.107-1.744.32a4.135 4.135 0 0 0-1.376.912 4.159 4.159 0 0 0-.928 1.36 4.494 4.494 0 0 0-.32 1.712c0 .619.107 1.19.32 1.712.224.523.533.981.928 1.376.395.384.853.683 1.376.896.533.213 1.115.32 1.744.32Zm8.802.192-1.728-.288c.416.032.757-.107 1.024-.416.277-.32.491-.763.64-1.328.16-.576.277-1.243.352-2 .075-.768.128-1.59.16-2.464l.112-3.6h7.872v10.448h-1.584v-9.056h-4.912l-.08 2.352c-.032.79-.085 1.547-.16 2.272-.064.725-.16 1.381-.288 1.968-.128.576-.309 1.05-.544 1.424-.224.373-.512.603-.864.688Zm-2.128 3.552.016-3.84h12.192v3.84h-1.488V57h-9.216l-.016 2.448h-1.488ZM141.15 57V45.8h1.584v8.64l6.624-8.64h1.472V57h-1.568v-8.624L142.622 57h-1.472Zm12.504.128c-.16 0-.32-.01-.48-.032a6.25 6.25 0 0 1-.528-.096l.112-1.424c.17.043.341.064.512.064.469 0 .842-.187 1.12-.56.277-.373.48-.939.608-1.696.138-.757.229-1.712.272-2.864l.176-4.72h7.888V57h-1.568V46.776l.384.416h-5.68l.352-.432-.128 3.712a26.71 26.71 0 0 1-.224 2.912c-.118.832-.294 1.525-.528 2.08-.235.555-.539.97-.912 1.248-.363.277-.822.416-1.376.416ZM166.822 57V45.8h1.584v3.904h3.328c1.323 0 2.341.299 3.056.896.715.587 1.072 1.467 1.072 2.64 0 1.237-.389 2.176-1.168 2.816-.768.63-1.851.944-3.248.944h-4.624Zm1.584-1.264h2.976c.928 0 1.637-.208 2.128-.624.501-.416.752-1.03.752-1.84 0-.79-.245-1.37-.736-1.744-.491-.373-1.205-.56-2.144-.56h-2.976v4.768ZM186.26 57V45.8h1.6V57h-1.6Zm-8.032 0V45.8h1.6V57h-1.6Zm1.44-4.992v-1.392h6.736v1.392h-6.736Zm16.725 5.12a6.486 6.486 0 0 1-2.384-.432 5.776 5.776 0 0 1-1.888-1.2 5.68 5.68 0 0 1-1.248-1.824 5.693 5.693 0 0 1-.448-2.272c0-.821.15-1.579.448-2.272a5.498 5.498 0 0 1 1.248-1.808 5.646 5.646 0 0 1 1.888-1.216 6.407 6.407 0 0 1 2.384-.432c.854 0 1.638.144 2.352.432a5.428 5.428 0 0 1 1.888 1.2c.544.512.96 1.115 1.248 1.808.299.693.448 1.456.448 2.288 0 .832-.149 1.595-.448 2.288a5.35 5.35 0 0 1-1.248 1.824 5.755 5.755 0 0 1-1.888 1.2c-.714.277-1.498.416-2.352.416Zm0-1.424c.619 0 1.19-.107 1.712-.32a4.037 4.037 0 0 0 1.376-.896c.395-.395.699-.853.912-1.376a4.3 4.3 0 0 0 .336-1.712 4.3 4.3 0 0 0-.336-1.712 3.956 3.956 0 0 0-.912-1.36 3.924 3.924 0 0 0-1.376-.912 4.485 4.485 0 0 0-1.712-.32c-.629 0-1.21.107-1.744.32a4.145 4.145 0 0 0-1.376.912 4.174 4.174 0 0 0-.928 1.36 4.494 4.494 0 0 0-.32 1.712c0 .619.107 1.19.32 1.712.224.523.534.981.928 1.376.395.384.854.683 1.376.896.534.213 1.115.32 1.744.32ZM204.916 57V45.8h7.904v1.392h-6.304v8.416h6.528V57h-8.128Zm1.456-5.008v-1.36h5.76v1.36h-5.76Z"/></g></g><defs><clipPath id="a"><path fill="#fff" d="M0 0h219v70H0z"/></clipPath></defs></svg>