<svg xmlns="http://www.w3.org/2000/svg" width="219" height="70" fill="none"><g clip-path="url(#a)"><path fill="#163B21" d="M76.368 36.32c-.576 0-1.216-.117-1.92-.352v-.608c.768-.085 1.43-.341 1.984-.768.555-.427 1.067-1.024 1.536-1.792l3.36-5.76c-1.301-.32-2.4-.928-3.296-1.824-.896-.896-1.344-2.208-1.344-3.936 0-2.517.821-4.213 2.464-5.088s3.488-1.312 5.536-1.312h8v.64h-.32c-.896 0-1.493.267-1.792.8-.299.512-.448 1.312-.448 2.4V36h-2.88v-8.64h-3.104l-3.36 6.08c-.597 1.088-1.237 1.845-1.92 2.272-.683.405-1.515.608-2.496.608Zm8.48-10.08c.747 0 1.547-.107 2.4-.32v-9.6a9.922 9.922 0 0 0-2.4-.32c-.683 0-1.408.181-2.176.544-.768.341-1.43.896-1.984 1.664-.533.768-.8 1.739-.8 2.912 0 1.173.267 2.144.8 2.912.555.768 1.216 1.333 1.984 1.696.768.341 1.493.512 2.176.512Zm12.013-7.52c0-1.088-.15-1.888-.448-2.4-.299-.533-.896-.8-1.792-.8h-.64v-.64h13.472c1.813 0 2.72.853 2.72 2.56v2.4h-.64c0-2.453-1.334-3.68-4-3.68h-5.792v7.68h3.52c2.346 0 4.341.437 5.984 1.312 1.664.875 2.496 2.464 2.496 4.768s-.832 3.893-2.496 4.768c-1.643.875-3.638 1.312-5.984 1.312h-6.4V18.72Zm5.92 16.16c1.813 0 3.221-.416 4.224-1.248 1.024-.832 1.536-2.07 1.536-3.712 0-1.643-.512-2.88-1.536-3.712-1.003-.832-2.411-1.248-4.224-1.248-1.003 0-2.016.15-3.04.448v9.024c1.024.299 2.037.448 3.04.448Zm11.096 1.44c-.491 0-1.024-.096-1.6-.288v-.8c1.066-.043 1.973-.501 2.72-1.376.768-.875 1.386-2.507 1.856-4.896.469-2.41.704-5.824.704-10.24 0-1.088-.15-1.888-.448-2.4-.299-.533-.896-.8-1.792-.8h-.32v-.64h15.84V36h-2.88V16.16h-8v2.56c0 4.608-.278 8.213-.832 10.816-.534 2.581-1.248 4.363-2.144 5.344-.875.96-1.91 1.44-3.104 1.44Zm30.89.32c-1.984 0-3.733-.49-5.248-1.472-1.493-.981-2.645-2.325-3.456-4.032-.811-1.707-1.216-3.605-1.216-5.696 0-2.09.405-3.99 1.216-5.696.811-1.707 1.963-3.05 3.456-4.032 1.515-.981 3.264-1.472 5.248-1.472 1.984 0 3.723.49 5.216 1.472 1.515.981 2.677 2.325 3.488 4.032.811 1.707 1.216 3.605 1.216 5.696 0 2.09-.405 3.99-1.216 5.696-.811 1.707-1.973 3.05-3.488 4.032-1.493.981-3.232 1.472-5.216 1.472Zm0-1.28c1.387 0 2.581-.405 3.584-1.216 1.024-.81 1.803-1.952 2.336-3.424.533-1.493.8-3.253.8-5.28s-.267-3.776-.8-5.248c-.533-1.493-1.312-2.645-2.336-3.456-1.003-.81-2.197-1.216-3.584-1.216s-2.592.405-3.616 1.216c-1.003.81-1.771 1.963-2.304 3.456-.533 1.472-.8 3.221-.8 5.248s.267 3.787.8 5.28c.533 1.472 1.301 2.613 2.304 3.424 1.024.81 2.229 1.216 3.616 1.216Zm25.956-8c-.491.235-1.141.405-1.952.512-.789.085-1.579.128-2.368.128-1.621 0-2.997-.17-4.128-.512a4.984 4.984 0 0 1-2.72-1.984c-.661-1.003-.992-2.41-.992-4.224v-2.56c0-1.088-.149-1.888-.448-2.4-.299-.533-.896-.8-1.792-.8h-.32v-.64h2.88c.789 0 1.376.107 1.76.32.405.192.693.555.864 1.088.171.533.256 1.344.256 2.432v2.88c0 1.365.171 2.421.512 3.168.363.747.885 1.259 1.568 1.536.683.277 1.589.416 2.72.416.725 0 1.472-.053 2.24-.16.768-.107 1.408-.267 1.92-.48v-11.2h2.88V36h-2.88v-8.64Zm25.493 8.96c-1.003 0-2.048-.267-3.136-.8-1.088-.555-2.336-1.568-3.744-3.04l-6.72-7.04V36h-2.88V18.72c0-1.088-.15-1.888-.448-2.4-.299-.533-.896-.8-1.792-.8h-.64v-.64h2.88c.789 0 1.376.107 1.76.32.405.192.693.555.864 1.088.17.533.256 1.344.256 2.432v6.24l6.72-6.72.64-.672a20.88 20.88 0 0 1 1.504-1.44 5.134 5.134 0 0 1 1.44-.896c.554-.235 1.173-.352 1.856-.352h1.6v.8c-.896 0-1.675.16-2.336.48-.662.299-1.43.885-2.304 1.76l-6.24 6.24 7.36 7.68c.938.96 1.888 1.77 2.848 2.432.96.64 1.824 1.013 2.592 1.12V36c-.64.213-1.334.32-2.08.32Zm11.051.32c-1.984 0-3.733-.49-5.248-1.472-1.493-.981-2.645-2.325-3.456-4.032-.811-1.707-1.216-3.605-1.216-5.696 0-2.09.405-3.99 1.216-5.696.811-1.707 1.963-3.05 3.456-4.032 1.515-.981 3.264-1.472 5.248-1.472 1.984 0 3.723.49 5.216 1.472 1.515.981 2.677 2.325 3.488 4.032.811 1.707 1.216 3.605 1.216 5.696 0 2.09-.405 3.99-1.216 5.696-.811 1.707-1.973 3.05-3.488 4.032-1.493.981-3.232 1.472-5.216 1.472Zm0-1.28c1.387 0 2.581-.405 3.584-1.216 1.024-.81 1.803-1.952 2.336-3.424.533-1.493.8-3.253.8-5.28s-.267-3.776-.8-5.248c-.533-1.493-1.312-2.645-2.336-3.456-1.003-.81-2.197-1.216-3.584-1.216s-2.592.405-3.616 1.216c-1.003.81-1.771 1.963-2.304 3.456-.533 1.472-.8 3.221-.8 5.248s.267 3.787.8 5.28c.533 1.472 1.301 2.613 2.304 3.424 1.024.81 2.229 1.216 3.616 1.216ZM75.888 59V47.8h.976l5.12 8.736h-.512l5.072-8.736h.976V59h-1.136v-9.424h.272l-4.672 8h-.56l-4.704-8h.304V59h-1.136Zm20.318.096a6.531 6.531 0 0 1-2.352-.416 5.806 5.806 0 0 1-1.872-1.2 5.848 5.848 0 0 1-1.232-1.808 5.865 5.865 0 0 1-.432-2.272c0-.821.144-1.573.432-2.256a5.607 5.607 0 0 1 1.232-1.808 5.47 5.47 0 0 1 1.872-1.2 6.236 6.236 0 0 1 2.352-.432c.843 0 1.622.144 2.336.432a5.417 5.417 0 0 1 1.856 1.184 5.282 5.282 0 0 1 1.232 1.808c.299.693.448 1.45.448 2.272 0 .821-.149 1.579-.448 2.272a5.282 5.282 0 0 1-1.232 1.808 5.62 5.62 0 0 1-1.856 1.2 6.404 6.404 0 0 1-2.336.416Zm0-1.056c.672 0 1.29-.112 1.856-.336a4.454 4.454 0 0 0 1.488-.976c.427-.427.758-.917.992-1.472a4.788 4.788 0 0 0 .352-1.856 4.67 4.67 0 0 0-.352-1.84 4.364 4.364 0 0 0-.992-1.472 4.151 4.151 0 0 0-1.488-.976 4.794 4.794 0 0 0-1.856-.352c-.672 0-1.296.117-1.872.352a4.31 4.31 0 0 0-1.504.976 4.71 4.71 0 0 0-.992 1.472 4.676 4.676 0 0 0-.352 1.84c0 .661.118 1.275.352 1.84a4.91 4.91 0 0 0 .992 1.488c.427.416.928.741 1.504.976a5.12 5.12 0 0 0 1.872.336Zm7.569 1.056a2.85 2.85 0 0 1-.432-.032 2.827 2.827 0 0 1-.464-.08l.096-1.056c.181.043.357.064.528.064.48 0 .864-.187 1.152-.56.299-.384.523-.97.672-1.76.149-.8.245-1.824.288-3.072l.16-4.8h7.6V59h-1.168V48.504l.304.32h-5.984l.288-.336-.144 4.08a28.81 28.81 0 0 1-.24 2.912c-.117.81-.288 1.488-.512 2.032-.224.533-.512.933-.864 1.2-.352.256-.779.384-1.28.384Zm18.291 0a6.529 6.529 0 0 1-2.352-.416 5.8 5.8 0 0 1-1.872-1.2 5.832 5.832 0 0 1-1.232-1.808 5.865 5.865 0 0 1-.432-2.272c0-.821.144-1.573.432-2.256a5.593 5.593 0 0 1 1.232-1.808 5.464 5.464 0 0 1 1.872-1.2c.714-.288 1.498-.432 2.352-.432.842 0 1.621.144 2.336.432a5.43 5.43 0 0 1 1.856 1.184 5.296 5.296 0 0 1 1.232 1.808c.298.693.448 1.45.448 2.272 0 .821-.15 1.579-.448 2.272a5.296 5.296 0 0 1-1.232 1.808 5.634 5.634 0 0 1-1.856 1.2 6.407 6.407 0 0 1-2.336.416Zm0-1.056c.672 0 1.29-.112 1.856-.336a4.454 4.454 0 0 0 1.488-.976c.426-.427.757-.917.992-1.472a4.806 4.806 0 0 0 .352-1.856c0-.672-.118-1.285-.352-1.84a4.388 4.388 0 0 0-.992-1.472 4.151 4.151 0 0 0-1.488-.976 4.796 4.796 0 0 0-1.856-.352c-.672 0-1.296.117-1.872.352a4.304 4.304 0 0 0-1.504.976 4.705 4.705 0 0 0-.992 1.472 4.67 4.67 0 0 0-.352 1.84c0 .661.117 1.275.352 1.84.245.565.576 1.061.992 1.488.426.416.928.741 1.504.976a5.12 5.12 0 0 0 1.872.336Zm15.825.4v-9.616h-5.36l-.096 2.72a42.935 42.935 0 0 1-.16 2.432 13.822 13.822 0 0 1-.32 2.08c-.139.608-.331 1.104-.576 1.488-.235.384-.544.608-.928.672l-1.296-.24c.426.021.778-.133 1.056-.464.288-.33.506-.795.656-1.392.16-.597.277-1.296.352-2.096.074-.8.128-1.664.16-2.592l.128-3.632h7.552v10.64h-1.168Zm-9.152 3.072.016-3.536h11.984v3.536h-1.104V59h-9.776l-.016 2.512h-1.104ZM143.154 59V47.8h1.168v9.28l7.168-9.28h1.072V59h-1.168v-9.264L144.226 59h-1.072Zm12.199.096a2.85 2.85 0 0 1-.432-.032 2.845 2.845 0 0 1-.464-.08l.096-1.056c.182.043.358.064.528.064.48 0 .864-.187 1.152-.56.299-.384.523-.97.672-1.76.15-.8.246-1.824.288-3.072l.16-4.8h7.6V59h-1.168V48.504l.304.32h-5.984l.288-.336-.144 4.08a28.24 28.24 0 0 1-.24 2.912c-.117.81-.288 1.488-.512 2.032-.224.533-.512.933-.864 1.2-.352.256-.778.384-1.28.384ZM173.42 51.8c1.322 0 2.33.299 3.024.896.704.587 1.056 1.461 1.056 2.624 0 1.205-.374 2.123-1.12 2.752-.747.619-1.814.928-3.2.928h-4.448V47.8h1.168v4h3.52Zm-.272 6.256c1.034 0 1.818-.23 2.352-.688.544-.459.816-1.13.816-2.016 0-.885-.267-1.536-.8-1.952-.534-.427-1.323-.64-2.368-.64H169.9v5.296h3.248ZM188.283 47.8h1.168V59h-1.168V47.8ZM181.275 59h-1.184V47.8h1.184V59Zm7.12-5.168h-7.248v-1.04h7.248v1.04Zm9.749 5.264a6.529 6.529 0 0 1-2.352-.416 5.8 5.8 0 0 1-1.872-1.2 5.832 5.832 0 0 1-1.232-1.808 5.865 5.865 0 0 1-.432-2.272c0-.821.144-1.573.432-2.256a5.593 5.593 0 0 1 1.232-1.808 5.464 5.464 0 0 1 1.872-1.2c.714-.288 1.498-.432 2.352-.432.842 0 1.621.144 2.336.432a5.43 5.43 0 0 1 1.856 1.184 5.296 5.296 0 0 1 1.232 1.808c.298.693.448 1.45.448 2.272 0 .821-.15 1.579-.448 2.272a5.296 5.296 0 0 1-1.232 1.808 5.634 5.634 0 0 1-1.856 1.2 6.407 6.407 0 0 1-2.336.416Zm0-1.056c.672 0 1.29-.112 1.856-.336a4.454 4.454 0 0 0 1.488-.976c.426-.427.757-.917.992-1.472a4.806 4.806 0 0 0 .352-1.856c0-.672-.118-1.285-.352-1.84a4.388 4.388 0 0 0-.992-1.472 4.151 4.151 0 0 0-1.488-.976 4.796 4.796 0 0 0-1.856-.352c-.672 0-1.296.117-1.872.352a4.304 4.304 0 0 0-1.504.976 4.705 4.705 0 0 0-.992 1.472 4.67 4.67 0 0 0-.352 1.84c0 .661.117 1.275.352 1.84.245.565.576 1.061.992 1.488.426.416.928.741 1.504.976a5.12 5.12 0 0 0 1.872.336Zm9.753-5.232h5.92v1.008h-5.92v-1.008Zm.128 5.168h6.736V59h-7.92V47.8h7.68v1.024h-6.496v9.152Z"/><path fill="#8CE35C" d="M59 38.5a29.54 29.54 0 0 1-6.697 18.715 29.63 29.63 0 0 1-4.088 4.09 29.573 29.573 0 0 1-12.96 6.129 29.322 29.322 0 0 1-5.756.566 29.37 29.37 0 0 1-5.754-.566 29.522 29.522 0 0 1-5.535-1.68 28.78 28.78 0 0 1-2.616-1.237c-.853-.455-1.68-.951-2.484-1.488a29.742 29.742 0 0 1-4.47-3.669 29.755 29.755 0 0 1-3.67-4.47 29.791 29.791 0 0 1-1.487-2.483 29.206 29.206 0 0 1-2.212-5.344 29.53 29.53 0 0 1-.705-2.807 29.529 29.529 0 0 1-.423-8.648c.093-.96.236-1.915.423-2.864a29.664 29.664 0 0 1 2.917-8.15A29.5 29.5 0 0 1 8.64 17.64a29.841 29.841 0 0 1 4.471-3.669 29.353 29.353 0 0 1 7.825-3.7 29.529 29.529 0 0 1 5.672-1.128 29.198 29.198 0 0 1 5.783 0 29.432 29.432 0 0 1 15.823 6.554 29.295 29.295 0 0 1 5.814 6.414c.537.802 1.033 1.63 1.488 2.483A29.468 29.468 0 0 1 59 38.5Z"/><mask id="b" width="56" height="70" x="7" y="0" maskUnits="userSpaceOnUse" style="mask-type:luminance"><path fill="#fff" d="M7.677 0H63v70H7.677V0Z"/></mask><g mask="url(#b)"><path fill="#163B21" d="M38.556.685a.771.771 0 0 0-.49-.163l-7.794.576a.42.42 0 0 0-.207.347l-.376-.01a.809.809 0 0 0 .083.377l.002.004.002.003v.001l.003.006.011.022.045.091a24.534 24.534 0 0 1 .737 1.741c.449 1.186.994 2.868 1.375 4.85.765 3.97.87 9.108-1.712 13.886a.77.77 0 0 0-.062.605c.06.2.188.365.38.47a.776.776 0 0 0 .6.064h.003l.002-.002a.775.775 0 0 0 .47-.383c2.601-4.815 2.737-9.8 2.138-13.761a28.873 28.873 0 0 0-2.077-7.183l5.741-.108c.147.65.477 2.226.712 4.21.289 2.442.43 5.473-.075 8.151-.502 2.657-2.046 5.403-3.521 7.541a36.737 36.737 0 0 1-2.815 3.584c-1.926-.64-3.162-1.008-4.355-1.218-1.243-.22-2.425-.266-4.27-.285h-.008c-4.586.014-9.636 1.417-12.49 6.396-1.625 2.839-2.196 6.363-2.023 10.09.173 3.73 1.092 7.69 2.474 11.426 1.382 3.737 3.229 7.272 5.326 10.145 2.092 2.867 4.455 5.103 6.88 6.2 6.25 2.83 11.153-.767 12.301-1.725 1.136.784 5.664 3.503 12.104 1.767.985-.264 1.976-.908 2.955-1.81.983-.904 1.976-2.087 2.962-3.462 1.972-2.758 3.907-6.35 5.446-10.223 1.54-3.873 2.705-8.042 3.083-11.951.378-3.904-.026-7.589-1.669-10.457-2.853-4.979-7.9-6.383-12.487-6.396-2.946-.01-5.763.536-7.838 1.083-1.04.273-1.896.547-2.495.754a24.969 24.969 0 0 0-.878.322h-.02l-.066.033-1.42.546-.018.006-.016.008a.547.547 0 0 0-.028.016l-.007.003-.075.036a16.444 16.444 0 0 0-1.243.683 17.64 17.64 0 0 0-2.86 2.153c-2.037 1.902-4.048 4.84-3.528 8.68.518 3.825 3.038 5.878 5.683 6.505 2.592.615 5.424-.007 6.758-1.72 1.306-1.673 1.184-4.148-.057-5.822a4.32 4.32 0 0 0-2.763-1.707c-1.187-.202-2.566.043-4.075.834l-.002.001a.775.775 0 0 0-.386.464.774.774 0 0 0 .053.604c.1.193.261.325.463.39h.003l.003.002a.782.782 0 0 0 .6-.056h.002c1.281-.673 2.3-.81 3.07-.677a2.698 2.698 0 0 1 1.758 1.088c.843 1.134.883 2.879.081 3.906-.377.483-1.108.906-2.051 1.139a6.68 6.68 0 0 1-3.09.012c-1.064-.253-2.073-.758-2.87-1.585-.793-.824-1.393-1.987-1.61-3.59-.428-3.158 1.198-5.59 3.037-7.31 1.744-1.629 3.59-2.512 3.76-2.591h.001l1.36-.526h.006l.067-.027.003-.001.01-.005.043-.016.171-.066a24 24 0 0 1 .658-.236c.57-.195 1.39-.456 2.383-.717 1.99-.522 4.662-1.038 7.419-1.03 4.291.014 8.631 1.258 11.117 5.598 1.406 2.456 1.792 5.81 1.434 9.527-.356 3.71-1.449 7.739-2.946 11.505-1.497 3.768-3.378 7.256-5.263 9.887-.94 1.313-1.888 2.402-2.764 3.204-.884.809-1.667 1.3-2.276 1.463-3.366.907-6.18.45-8.152-.233a12.74 12.74 0 0 1-2.291-1.048 9.25 9.25 0 0 1-.748-.49l-.025-.02-.01-.007-.008-.006-.002-.001-.003-.003-.004-.003a.797.797 0 0 0-.52-.166h-.007a.786.786 0 0 0-.506.218l-.002.002-.01.009c-.007.007-.02.02-.038.035a9.768 9.768 0 0 1-.794.623c-.554.391-1.358.883-2.357 1.286-1.993.806-4.752 1.255-7.862-.153-2.048-.927-4.22-2.964-6.227-5.705-2.001-2.733-3.812-6.135-5.148-9.745-1.336-3.612-2.195-7.413-2.358-10.94-.163-3.53.373-6.754 1.797-9.239 2.485-4.338 6.82-5.584 11.109-5.598 1.896.02 2.946.046 4.073.247 1.132.203 2.351.583 4.578 1.333h.003a.79.79 0 0 0 .442.023.79.79 0 0 0 .382-.229l.004-.004.013-.014a31.831 31.831 0 0 0 .923-1.04 38.92 38.92 0 0 0 2.146-2.775c1.607-2.285 3.382-5.363 3.967-8.455.575-3.042.376-6.46.04-9.101a46.366 46.366 0 0 0-.738-4.21c-.025-.11-.045-.195-.06-.252l-.016-.067-.004-.017v-.004l-.001-.001a.782.782 0 0 0-.288-.436Z"/><path stroke="#163B21" stroke-width="1" d="m29.689 1.434.376.01a.42.42 0 0 1 .207-.347l7.793-.575a.771.771 0 0 1 .491.163c.14.108.242.254.288.436l.001.005.005.017a25.848 25.848 0 0 1 .076.32 46.366 46.366 0 0 1 .737 4.209c.336 2.64.535 6.06-.04 9.1-.585 3.093-2.36 6.17-3.967 8.456a38.92 38.92 0 0 1-2.145 2.774 31.831 31.831 0 0 1-.924 1.04l-.013.015-.003.003-.001.001a.79.79 0 0 1-.382.229.79.79 0 0 1-.442-.023h-.003c-2.227-.75-3.446-1.13-4.578-1.332-1.127-.202-2.177-.228-4.073-.248-4.288.014-8.624 1.26-11.109 5.598-1.424 2.485-1.96 5.71-1.797 9.24.163 3.526 1.022 7.327 2.358 10.939 1.336 3.61 3.147 7.012 5.148 9.745 2.006 2.741 4.18 4.778 6.227 5.705 3.11 1.408 5.87.959 7.862.153a11.757 11.757 0 0 0 2.357-1.286 9.768 9.768 0 0 0 .794-.623l.039-.035.009-.009.001-.001.001-.001a.786.786 0 0 1 .506-.217h.007c.191-.008.369.05.52.165l.004.003.003.002.002.002.007.006.011.008.025.019a9.25 9.25 0 0 0 .748.49c.527.31 1.304.707 2.29 1.048 1.973.682 4.788 1.14 8.153.233.61-.164 1.392-.654 2.276-1.463.876-.802 1.823-1.89 2.764-3.204 1.885-2.631 3.766-6.119 5.263-9.887 1.497-3.766 2.59-7.794 2.946-11.505.358-3.718-.028-7.071-1.434-9.527-2.486-4.34-6.826-5.584-11.117-5.598-2.757-.009-5.43.508-7.419 1.03-.993.26-1.812.522-2.383.718a24 24 0 0 0-.83.3l-.042.018-.01.004h-.002l-.069.028h-.005l-1.36.525h-.002c-.17.08-2.015.963-3.759 2.592-1.84 1.72-3.465 4.152-3.037 7.31.217 1.603.817 2.766 1.61 3.59.797.827 1.806 1.332 2.87 1.585a6.68 6.68 0 0 0 3.09-.012c.944-.233 1.674-.656 2.051-1.14.802-1.026.763-2.771-.08-3.905a2.698 2.698 0 0 0-1.76-1.088c-.77-.132-1.788.004-3.07.677a.782.782 0 0 1-.6.056l-.004-.001h-.003a.779.779 0 0 1-.463-.39.774.774 0 0 1-.053-.605.775.775 0 0 1 .386-.464h.002c1.51-.792 2.888-1.037 4.075-.835a4.32 4.32 0 0 1 2.763 1.707c1.241 1.674 1.363 4.149.057 5.823-1.334 1.712-4.166 2.334-6.758 1.72-2.645-.628-5.165-2.681-5.683-6.506-.52-3.84 1.49-6.778 3.527-8.68a17.64 17.64 0 0 1 4.179-2.872l.007-.003a.547.547 0 0 1 .028-.016l.016-.008.017-.006 1.42-.546.068-.033h.02a24.969 24.969 0 0 1 .878-.322 34.914 34.914 0 0 1 2.494-.754c2.075-.547 4.892-1.093 7.838-1.084 4.588.014 9.634 1.418 12.487 6.397 1.643 2.868 2.047 6.553 1.67 10.457-.379 3.91-1.544 8.078-3.084 11.95-1.54 3.873-3.474 7.466-5.446 10.224-.986 1.376-1.98 2.558-2.962 3.463-.98.9-1.97 1.545-2.955 1.81-6.44 1.735-10.968-.984-12.104-1.768-1.148.958-6.05 4.554-12.3 1.725-2.426-1.097-4.788-3.333-6.881-6.2-2.097-2.873-3.944-6.408-5.326-10.145-1.382-3.736-2.301-7.696-2.474-11.426-.173-3.727.398-7.252 2.024-10.09 2.853-4.979 7.903-6.383 12.489-6.396H23.107c1.844.02 3.026.065 4.27.285 1.192.21 2.428.578 4.354 1.218a36.737 36.737 0 0 0 2.815-3.584c1.475-2.138 3.019-4.884 3.522-7.541.505-2.678.363-5.71.074-8.15a42.492 42.492 0 0 0-.712-4.21l-5.741.107a28.873 28.873 0 0 1 2.077 7.183c.6 3.96.463 8.946-2.139 13.76a.775.775 0 0 1-.469.384l-.003.001-.003.001a.776.776 0 0 1-.598-.065.777.777 0 0 1-.381-.468.77.77 0 0 1 .063-.606c2.58-4.778 2.476-9.916 1.711-13.885a29.694 29.694 0 0 0-1.375-4.85 24.534 24.534 0 0 0-.737-1.742 7.802 7.802 0 0 0-.045-.091l-.011-.022-.003-.006-.002-.004-.002-.004a.809.809 0 0 1-.083-.378Zm0 0Z"/></g></g><defs><clipPath id="a"><path fill="#fff" d="M0 0h219v70H0z"/></clipPath></defs></svg>