<svg xmlns="http://www.w3.org/2000/svg" width="170" height="170" fill="none"><mask id="a" width="170" height="170" x="0" y="0" maskUnits="userSpaceOnUse" style="mask-type:alpha"><circle cx="85" cy="85" r="85" fill="#78AEB1" transform="matrix(-1 0 0 1 170 0)"/></mask><g mask="url(#a)"><circle cx="85" cy="85" r="85" fill="#78AEB1" transform="matrix(-1 0 0 1 170 0)"/><path fill="#EACBAF" fill-rule="evenodd" d="M116 62c0 1.696-.091 3.365-.267 5 0 0 1.1-1.887 2.267-2.5.115-.06.221-.122.322-.182.382-.223.699-.41 1.178-.318.792.15.688.934.574 1.791-.054.406-.11.829-.074 1.209 0 0-.012 4.303-.5 7-.396 2.19-.681 3.43-1.5 5.5-.643 1.624-2 4-2 4l-.323-.005c-.978 8.236-4.12 15.586-8.677 21.111V117l3 5-6.5 22.5H67L62.209 117V99c-2.644-4.8-4.405-10.423-4.993-16.5h-.046s-1.08.277-1.67 0c-.582-.273-.647-.796-.72-1.376-.045-.369-.094-.76-.28-1.124-.369-.72-.8-1.206-1.225-1.685-.458-.516-.91-1.025-1.275-1.815-.793-1.718-.851-3.002-.927-4.651-.019-.422-.04-.867-.073-1.349-.018-.254-.036-.493-.054-.721-.103-1.34-.176-2.295.054-3.779.063-.408.061-.834.06-1.245-.006-1.004-.01-1.917.94-2.255.494-.176.842-.115 1.324-.03l.176.03c1.953.328 3.67 3.5 3.67 3.5a46.85 46.85 0 0 1-.17-4c0-20.434 13.208-37 29.5-37S116 41.566 116 62Z" clip-rule="evenodd"/><path fill="#000" d="M100.5 33c-4.904-1.935-8.377 1.246-13.5 0-3.065-.746-4.349-2.853-7.5-3-4.537-.212-6.997 2.11-10.5 5-2.565 2.116-4.357 3.377-5.5 6.5-1.14 3.117 1.14 5.383 0 8.5-1.143 3.123-4.469 3.339-5.5 6.5-.848 2.599 0 7 0 7v9s-3.145-6.25-4.5-10.5c-1.454-4.56-2.098-7.23-2.5-12-.279-3.308-.858-5.293 0-8.5 1.022-3.82 2.347-6.114 5.5-8.5 2.955-2.235 5.309-2.681 9-3H69l-1.5-1.5s-.623-3.445 0-5.5c1.082-3.57 7-6.5 7-6.5s7.48-3.047 12.5-3c4.83.046 12 3 12 3s8.468 5.14 13 9.5c4 3.848 6.899 5.863 9 11 1.934 4.73 1.741 7.895 1.5 13-.255 5.395-2.5 14.5-2.5 14.5s-1-1.5-2.5.5-2.5 9-2.5 9v-7s.807-5.28 0-8.5c-.937-3.736-4.063-4.764-5-8.5-.807-3.22 1.08-5.361 0-8.5-1.619-4.708-4.869-6.672-9.5-8.5Z"/><path fill="#12373F" d="M76.5 133.5c2.157 1.352 3.648 1.753 5.5 3.5 2.364 2.23 4.5 7 4.5 7s2.311-3.156 4-5c4.036-4.408 8.486-4.665 12-9.5 2.413-3.321 3.5-9.5 3.5-9.5l1-10.5h.5l2.5 6 45.5 23.5s4.708 1.105 7 3c1.388 1.147 3 3.5 3 3.5l12 25.5h-184s1.75-5.815 3-9.5c2.282-6.731 1.922-11.563 6.5-17 3.144-3.734 5.907-4.839 10-7.5 7.982-5.189 22-10.5 22-10.5L57.5 115l4.5-5.5s-.042 3.509 0 5.5c.062 2.902.248 3.881 1.5 6.5 1.286 2.689 1.972 4.316 4 6.5 2.803 3.018 5.51 3.313 9 5.5Z"/></g></svg>