<svg xmlns="http://www.w3.org/2000/svg" width="170" height="170" fill="none"><circle cx="85" cy="85" r="85" fill="#FED28F"/><mask id="a" width="170" height="170" x="0" y="0" maskUnits="userSpaceOnUse" style="mask-type:alpha"><circle cx="85" cy="85" r="85" fill="#6E8F7B"/></mask><g mask="url(#a)"><ellipse cx="84.5" cy="78.5" fill="#472E1A" rx="42.5" ry="38.5"/><path fill="#6F391D" d="M108 61.5c0 11.579-4.285 21.743-10.737 27.5-3.55 3.167-7.755 5-12.263 5-8.292 0-15.56-6.2-19.606-15.5a39.585 39.585 0 0 1-2.167-6.5A44.8 44.8 0 0 1 62 61.5c0-1.527.075-3.03.219-4.5C63.769 41.18 73.378 29 85 29c12.703 0 23 14.55 23 32.5Z"/><path fill="#6F391D" d="M62 61.5c0-1.527.075-3.03.219-4.5 0 0-.907-2.365-2.219-3-1.23-.596-2.209-.448-3.5 0-2.563.89-3.79 3.382-4.5 6-.716 2.638.1 4.418 1 7 .606 1.74 1.33 2.577 2.5 4 .877 1.066 1.274 1.866 2.5 2.5 1.398.723 2.716 1.41 4 .5.747-.53 1.227-2 1.227-2A44.8 44.8 0 0 1 62 61.5ZM85 94c-8.292 0-15.56-6.2-19.606-15.5 0 0 2.278 8.14 2.606 13.5.155 2.534 0 6.5 0 6.5L65.394 110l41.106 1s-4.821-2.039-7.5-4c-1.453-1.063-3.5-3-3.5-3s-.5-3.649-.5-6 .5-6 .5-6l1.763-3c-3.55 3.167-7.755 5-12.263 5Z"/><path fill="#472E1A" d="M93.5 35.5c-2.938-1.63-7-5-7-5s-1.537 2.068-3 2.5c-2.192.647-5.5-2-5.5-2s-1.067 2.818-2 4.5c-1.686 3.04-2.862 4.735-5.5 7-1.932 1.658-4.264 1.274-5.5 3.5-1.047 1.886-.044 3.392-.5 5.5C63.925 54.158 62 58 62 58s.041-4.61-2-6c-2.104-1.433-6.5.5-6.5.5S44.43 62.57 47 69c2.561 6.408 14.5 7 16 7.5S67.5 96 67.5 96s.169 9.475-3.5 13.5c-1.897 2.081-3.26 3.346-6 4-3.732.89-7.33.664-9.5-2.5-1.877-2.738 2.468-6.281 0-8.5-2.038-1.832-4.655.919-7-.5-4.04-2.445 2.515-9.513-1.5-12-.894-.554-1.607-.444-2.5-1-3.578-2.228-.357-6.87-2.5-10.5-1.475-2.5-4.195-2.711-5-5.5-1.31-4.537 5.828-5.78 6-10.5.08-2.182-1.428-3.36-1-5.5.467-2.337 2.98-2.674 3.5-5 .428-1.915-.872-3.073-.5-5 .904-4.68 8.84-2.376 10-7 .572-2.28-1.327-3.799-.5-6 1.2-3.198 5.375-1.826 7.5-4.5 1.468-1.847.683-3.995 2.5-5.5 1.715-1.42 3.576-.38 5.5-1.5 1.91-1.11 2.036-2.988 4-4 2.95-1.52 6.258 2.448 8.5 0 1.004-1.097.326-2.587 1.5-3.5 1.242-.967 2.644.299 4-.5 1.732-1.02.77-3.476 2.5-4.5 2.715-1.606 7.5 3 7.5 3s2.305-3.157 4.5-4c2.94-1.129 5.015-.003 8 1 3.492 1.174 4.698 3.366 8 5 3.544 1.753 7.072.38 9.5 3.5 2.188 2.812.155 5.7 1.5 9 2.087 5.12 8.073 5.158 9.5 10.5.806 3.018-.79 4.977 0 8 .932 3.564 4.251 4.393 5 8 .763 3.678-2.181 5.806-1.5 9.5.507 2.75 2.855 3.708 3 6.5.164 3.15-3.157 4.35-3 7.5.183 3.68 5.5 4.35 5 8-.414 3.022-2.885 3.802-5 6-2.687 2.793-5.688 3.074-7.5 6.5-1.486 2.81-.04 5.176-1.5 8-2.314 4.476-5.496 6.907-10.5 7.5-3.81.451-9.5-2.5-9.5-2.5L99 95.5l7.5-12.5s1.143-7.91 1-13c-.105-3.729-.822-5.774-1-9.5-.149-3.12.937-5.02 0-8-.926-2.945-3.055-3.772-4.5-6.5-1.561-2.949-.555-5.73-3-8-1.729-1.605-3.437-1.355-5.5-2.5Z"/><path fill="#A2B3BF" d="M82.5 110.5c-6.537-.402-16.5-3-16.5-3s-5.388 4.469-9.5 6c-4.79 1.783-8.184-.21-13 1.5-4.798 1.704-7.728 3.099-11 7-4.087 4.873-5 15.5-5 15.5l5 41.5 118-1.5v-37s1.134-16.351-5.5-22.5c-6.152-5.701-19.5-4.5-21-4.5s-8.395.373-13.5-1c-3.467-.933-8.5-3.5-8.5-3.5s-11.877 1.969-19.5 1.5Z"/></g></svg>