<svg xmlns="http://www.w3.org/2000/svg" width="170" height="170" fill="none"><circle cx="85" cy="85" r="85" fill="#78AEB1"/><mask id="a" width="170" height="170" x="0" y="0" maskUnits="userSpaceOnUse" style="mask-type:alpha"><circle cx="85" cy="85" r="85" fill="#FED18F"/></mask><g mask="url(#a)"><ellipse cx="79.5" cy="79" fill="#56402E" rx="33.5" ry="63" transform="rotate(-5.712 79.5 79)"/><path fill="#DCB9A5" d="M110 55.5c0 4.184-.63 8.216-1.5 12-1.379 6-2.782 7.68-4.5 11-2.812 4.218-3.428 5.97-8.024 9.72-.307.25-.632.51-.976.78-4.135 3.238-8.412 6-13.5 6-5.088 0-9.365-2.762-13.5-6a25.31 25.31 0 0 1-.618-.5c-2.749-2.296-4.81-5.017-6.882-8.5-2.042-3.433-4.882-7.24-6-11.5a43.165 43.165 0 0 1-.474-2C53.279 62.984 53 59.488 53 55.5c0-1.01.027-2.01.081-3C54.187 32.086 66.488 16 81.5 16 97.24 16 110 33.685 110 55.5Z"/><path fill="#DCB9A5" d="M81.5 95c-5.088 0-9.365-2.762-13.5-6a25.31 25.31 0 0 1-.618-.5s3.465 11.337 0 17c-.924 1.51-2.882 3.5-2.882 3.5l-10 1-21 3.5 13 28L71 163l17 6.5 12.5-14 20-32 1-13-10.5-.5-9.5-1s-3.181-1.706-4.5-3.5c-2.225-3.026-1.5-9.5-1.5-9.5l.476-7.78c-.307.25-.632.51-.976.78-4.135 3.238-8.412 6-13.5 6ZM53 55.5c0-1.01.027-2.01.081-3 0 0-1.18-1.014-2.081-1-.873.014-1.5.203-2 1-.5.797-.666 2.13-.5 3.5.241 1.996 1.634 2.686 2.5 4.5.906 1.898.627 3.407 2 5 .365.424 1.026 1 1.026 1-.747-3.516-1.026-7.012-1.026-11Z"/><path fill="#56402E" d="M73.5 23c0-1.61-1-4-1-4l4 3.5s1.732 1.173 3 1.5c1.513.39 4 0 4 0s2.405-1.218 4-1c1.042.142 2.5.5 2.5.5s2.335 1.016 3.5 2c1.376 1.161 1.263 4.192 2.5 5.5 1.341 1.419 2.852 1.42 4 3 1.402 1.928.423 2.874 1.5 5 1.116 2.203 2.599 2.563 3 5 .412 2.505-.099 4.533.5 7 .454 1.869 1.306 2.706 2 4.5.668 1.728 1.146 2.682 1.5 4.5.522 2.683-1.261 4.277-1.5 7-.611 6.951-4 17-4 17l7.5 26 11 .5s4.93.023 7.5-1.5c.84-.498 1.31-.81 2-1.5s1.121-1.1 1.5-2c.606-1.44 0-2.438 0-4 0-1.367.22-2.15 0-3.5-.268-1.647-1.255-2.35-1.5-4-.172-1.159 0-1.828 0-3v-3.5s.326-2.173 0-3.5c-.375-1.529-2-3.5-2-3.5s-3.051-1.794-4-3.5c-1.111-1.997-1-6-1-6l-2-5v-7s-1.284-3.47-1.5-6c-.202-2.367.584-4.197 0-6.5-1.096-4.324-4.5-9.5-4.5-9.5s-1.069-6.674-3-10c-1.687-2.905-7-6.5-7-6.5s-3.081-6.188-6.5-9c-2.51-2.064-4.081-3.07-7-4.5-1.889-.925-2.924-1.661-5-2-1.542-.252-2.475-.339-4 0-1.705.379-4 2-4 2s-.534-.703-1-1c-1.153-.734-2.136-.095-3.5 0-2.178.15-3.426.317-5.5 1-4.012 1.321-5.823 3.216-9 6-3.648 3.197-4.261 5.497-7 9.5-2.763 4.038-5.303 6.41-7 11-1.528 4.132-.814 7.648-1.5 12-.672 4.26-1.789 5.692-2 10-.249 5.07 1.636 8.436 2 13.5.382 5.316-.718 7.719 0 13 .636 4.68 3.025 7.277 3 12-.024 4.529-.89 7.492-3 11.5-1.8 3.421-7 7-7 7l26-3.5 1-19-18.5-34.5 2.5-7s1.921 1.422 3 2.5c1.88 1.877 4 5.5 4 5.5v-9c0-1.757-.462-2.805 0-4.5.556-2.038 1.5-3.014 3-4.5 1.193-1.182 3.5-2.5 3.5-2.5s3.263-4.427 5.5-6.5c1.62-1.502 3.496-.532 4.5-2.5.732-1.434 1-2.39 1-4Z"/><path fill="#191E2E" d="M127 108.5c-5.908-.154-14.5 1.5-14.5 1.5s-.653 5.237-1.5 8.5c-2.501 9.639-6.726 14.053-12 22.5-5.77 9.243-16.5 22.5-16.5 22.5S70.845 150.474 65 141c-4.814-7.803-7.404-12.369-10.5-21-1.377-3.838-3-10-3-10s-5.83.704-9.5 1.5c-4.059.88-6.248 1.431-10.18 2.42l-.32.08c-2.526.635-3.701 1.275-6 2.5-2.075 1.106-3.373 1.803-5 3.5-2.216 2.312-3.486 3.678-5 6.5-2.284 4.256-2.081 7.258-3 12-1.271 6.563-1.583 10.328-2 17-.475 7.6 0 19.5 0 19.5H35l-3.5-24.5L36 175h104l1.5-23-.5 23h26v-11.5s-.829-10.419-2-17c-1.054-5.922-1.557-9.307-3.5-15-1.582-4.635-2.038-7.6-5-11.5-2.511-3.306-4.384-4.962-8-7-3.067-1.728-5.102-2.081-8.5-3-4.749-1.285-8.026-1.37-12.927-1.498L127 108.5Z"/></g></svg>