<svg xmlns="http://www.w3.org/2000/svg" width="170" height="170" fill="none"><circle cx="85" cy="85" r="85" fill="#F8A0A0"/><mask id="a" width="170" height="170" x="0" y="0" maskUnits="userSpaceOnUse" style="mask-type:alpha"><circle cx="85" cy="85" r="85" fill="#D9D9D9"/></mask><g mask="url(#a)"><path fill="#000" d="m72.027 89.863-16.5-34L52 54.5l-4 2s-1.046 11.832-.5 22.363c.243 4.697.027 1.5.527 11 .115 2.18.187 5.928-.5 8-1.074 3.243-2.754 4.565-4.5 7.5-5.992 10.075-15 26-15 26s-5.111 8.818-7 15c-1.052 3.444-1.785 5.406-2 9-.223 3.724 1 9.5 1 9.5l1.227 7h18.273l-.5-32 6-14 35-12.5v-17.5l-8-6ZM113.027 53.863l9.473-1.122s-.568 7.45-.973 12.122c-.391 4.513-1.252 6.978-1.5 11.5-.182 3.315-.344 5.199 0 8.5.31 2.971 1.5 7.5 1.5 7.5s1.226 4.985 2.5 8c2.466 5.837 5.548 8.187 9 13.5 2.774 4.27 4.807 6.679 7.5 11 1.576 2.53 1.5 2.5 4 6 1.436 2.01 2.5 5 2.5 5s.5 2.548.5 4.5c0 1.953 0 3.5-1.5 9.5s-1.731 5.719-2 9.5c-.25 3.512-.146 5.54.5 9 .409 2.189 1.5 5.5 1.5 5.5h-12l1-30-9.5-14-20.5-12-10-8.5v-14.5l12-20 6-21Z"/><path fill="#DBAE7F" d="M113.5 57.863c-.372 4.647-1.02 9.224-2.072 13.5-1.78 7.23-4.716 13.602-9.428 18-1.609 1.502-3.063 2.913-4.5 4.18-3.348 2.952-6.602 5.12-11.5 5.82a35.608 35.608 0 0 1-6.5-2.424c-4.507-2.202-8.436-5.282-12.5-9.076-3.967-3.703-6.536-8.245-8.297-13.627-1.568-4.792-2.496-10.25-3.203-16.373 0-.67.011-1.337.034-2 .738-21.714 13.424-39 28.966-39 15.303 0 27.837 16.757 28.924 38 .05.991.076 1.992.076 3Z"/><path fill="#DBAE7F" d="M55.5 57.863c0-.67.011-1.337.034-2 0 0-1.472-.561-2.034 0-2 2-1.87 3.223-2 4-.208 1.246-.359 4.487 0 7 .315 2.204.786 3.358 1.5 5.5.5 1.5 2 2.5 2 2.5s1.5 1 3 .5c.492-.164.703-1.127.703-1.127-1.568-4.792-2.496-10.25-3.203-16.373ZM113.424 54.863c.05.991.076 1.992.076 3-.372 4.647-1.02 9.224-2.072 13.5 0 0 1.104.886 2.072 1 1.156.137 3-1 3-1s2.712-2.284 3.5-4.5c.853-2.398.192-5.222-.5-7.5l-.022-.072c-.856-2.816-1.499-4.932-3.978-5.428-.883-.176-2.076 1-2.076 1ZM86 99.363a35.608 35.608 0 0 1-6.5-2.424s1.389 5.728 0 8.924c-.454 1.045-.851 1.565-1.5 2.5-4.333 6.25-9 7.5-17 10-7.269 2.272-12.711 1.521-18 7-1.844 1.911-2.831 3.116-4 5.5-1.669 3.405-1.868 5.711-2 9.5-.117 3.341 1 8.5 1 8.5l1 10.5 1 12.5 95 2s2.053-8.157 2.5-13.5c.374-4.475.569-7.005.5-11.5-.051-3.324-.5-9.863-.5-9.863s-.457-2.186-1-3.5c-.721-1.744-1.412-2.771-2.5-4.137-1.485-1.864-5-3.5-5-3.5l-14.5-7.5s-9.637-4.443-14.5-9c-.806-.755-.983-1.023-1.5-2-.556-1.049-.842-1.822-1-3-.667-4.962 0-12.82 0-12.82-3.348 2.952-6.602 5.12-11.5 5.82Z"/><path fill="#000" d="M102 79.5s-.886-3.216-2-5c-2.214-3.544-5.252-3.871-8.5-6.5-2.585-2.092-4.366-2.95-6.5-5.5-1.355-1.62-1.896-2.7-3-4.5-1.735-2.83-2.898-4.369-4-7.5-.928-2.637-1.5-7-1.5-7V27s.5.5 0 1.5S76 30 75 32c-1.188 2.376-1.985 3.818-3.5 6-2.255 3.248-6 8-6 8l-4 4.5-5.753 5.637s-1-.5-1.5-.5S48 56.5 48 56.5s-.069-10.152.5-15c.442-3.766 2-9.5 2-9.5s2.093-7.261 5-10.863c2.17-2.689 3.9-4.114 7-5.637 3.026-1.486 6.5-2 8.5-2s8 .5 8 .5 2.127-2.605 4-3.5c2.995-1.431 5.216-1.603 8.5-1.122 3.284.48 6.634 1.567 10.5 3.5 4 2 6.438 4.938 8.5 7 1.5 1.5 6 10 6 10s2.715 6.974 4 11.622c1.215 4.394 2 11.378 2 11.378l-8.753 1.259L113 64s-1.057-3.12-2-5c-1.141-2.276-1.893-3.526-3.5-5.5-2.007-2.465-6-5.5-6-5.5s-4.326-3.734-7.5-5.5c-2.062-1.147-5.5-2.5-5.5-2.5s-1.885-1.14-3-2c-2.736-2.109-6-6.5-6-6.5s-.245 8.277.5 13.5c.168 1.176 0 0 .5 3 .368 2.206.53 2.74 1.5 4.5 1.18 2.143 2.537 3.54 4 5.5 1.487 1.992 4.5 4.5 4.5 4.5a174540.758 174540.758 0 0 0 8 8s1.784 1.654 2.5 3c1.116 2.097 1 6 1 6Z"/><path fill="#785757" d="M72.5 129c-3.32-4.076-5-12.5-5-12.5l-17 4s3.005 2.84 4.5 5c2.189 3.163 3.417 5.309 4.5 9 1.112 3.789 1.328 6.065 1 10-.287 3.448-1.434 5.208-2.5 8.5-1.408 4.349-4 11-4 11l4 6.5 41 5 24-14s-3-5.056-4.5-8.5c-1.405-3.227-2.375-5.036-3-8.5-.694-3.843-.587-6.139 0-10 .714-4.701 4-11.5 4-11.5l-12.5-7s-2 8.5-4.5 13c-2.08 3.744-4.004 5.959-8 7.5-3.826 1.475-7.026 2.012-11 1-5.143-1.31-7.564-4.282-10.897-8.374L72.5 129Z"/></g></svg>