<svg xmlns="http://www.w3.org/2000/svg" width="188" height="188" fill="none"><path fill="#8EE159" d="M167.464 102.5a78.78 78.78 0 0 1-1.516 15.354 78.119 78.119 0 0 1-4.479 14.761 78.29 78.29 0 0 1-7.271 13.604 77.695 77.695 0 0 1-4.599 6.203 79.057 79.057 0 0 1-10.906 10.911 78.8 78.8 0 0 1-42.214 17.485 79.418 79.418 0 0 1-15.427 0 78.365 78.365 0 0 1-7.635-1.136 78.312 78.312 0 0 1-14.766-4.479 76.72 76.72 0 0 1-6.98-3.302 77.835 77.835 0 0 1-6.624-3.969 79.328 79.328 0 0 1-6.203-4.599 79.21 79.21 0 0 1-5.724-5.187 79.333 79.333 0 0 1-5.182-5.724 77.708 77.708 0 0 1-4.605-6.203 79.494 79.494 0 0 1-3.968-6.62 80.599 80.599 0 0 1-3.302-6.984 77.912 77.912 0 0 1-2.6-7.271 78.765 78.765 0 0 1-1.88-7.49c-.5-2.531-.88-5.073-1.13-7.64a77.83 77.83 0 0 1-.38-7.714 78.999 78.999 0 0 1 1.51-15.354 79.113 79.113 0 0 1 4.48-14.76 79.761 79.761 0 0 1 3.302-6.98 78.694 78.694 0 0 1 3.968-6.625 79.353 79.353 0 0 1 9.786-11.927 79.622 79.622 0 0 1 11.927-9.786 78.146 78.146 0 0 1 6.626-3.969 78.303 78.303 0 0 1 14.25-5.901 78.83 78.83 0 0 1 7.495-1.88c2.526-.5 5.073-.88 7.635-1.13a77.893 77.893 0 0 1 7.714-.38c2.578 0 5.15.124 7.713.38 2.568.25 5.115.63 7.641 1.13a78.67 78.67 0 0 1 7.489 1.88 77.81 77.81 0 0 1 7.271 2.599 78.317 78.317 0 0 1 6.985 3.302 79.12 79.12 0 0 1 6.625 3.969 78.548 78.548 0 0 1 6.197 4.604 76.791 76.791 0 0 1 5.724 5.182 78.138 78.138 0 0 1 5.188 5.724 77.644 77.644 0 0 1 4.599 6.203 77.514 77.514 0 0 1 3.969 6.625 77.243 77.243 0 0 1 3.302 6.98 78.595 78.595 0 0 1 5.995 30.114Z"/><mask id="a" width="147" height="186" x="31" y="1" maskUnits="userSpaceOnUse" style="mask-type:luminance"><path fill="#fff" d="M31 1h147v186H31V1Z"/></mask><g mask="url(#a)"><path fill="#1E5216" stroke="#1E5216" stroke-width="2" d="M113.05 2.82a2.05 2.05 0 0 0-1.305-.433l-20.707 1.53a1.115 1.115 0 0 0-.55.922l-1-.028c-.01.364.073.7.22 1.003l.005.01.005.01.002.003.007.014.03.059.118.243c.105.216.258.54.449.964.381.846.913 2.089 1.51 3.663a78.9 78.9 0 0 1 3.655 12.887c2.031 10.548 2.309 24.2-4.549 36.895a2.044 2.044 0 0 0-.167 1.61c.162.53.5.968 1.013 1.245a2.063 2.063 0 0 0 1.591.172l.008-.002.008-.002a2.06 2.06 0 0 0 1.245-1.02c6.914-12.794 7.276-26.04 5.682-36.565-1.344-8.87-4.084-15.852-5.517-19.085l15.255-.286a112.867 112.867 0 0 1 1.891 11.188c.768 6.486 1.145 14.54-.198 21.656-1.336 7.059-5.437 14.356-9.357 20.038-3.26 4.725-6.345 8.264-7.48 9.523-5.116-1.701-8.402-2.678-11.572-3.238-3.302-.582-6.444-.705-11.343-.758H71.975c-12.185.038-25.604 3.767-33.186 16.996-4.32 7.544-5.837 16.907-5.378 26.812.46 9.911 2.901 20.433 6.575 30.36 3.672 9.929 8.579 19.322 14.15 26.956 5.562 7.618 11.84 13.559 18.283 16.476 16.608 7.517 29.634-2.038 32.686-4.584 3.018 2.083 15.049 9.307 32.162 4.696 2.616-.703 5.249-2.415 7.852-4.809 2.611-2.403 5.249-5.546 7.869-9.201v-.001c5.241-7.327 10.381-16.873 14.472-27.163 4.092-10.29 7.188-21.368 8.192-31.756 1.003-10.373-.07-20.164-4.434-27.785-7.583-13.23-20.991-16.96-33.181-16.996-7.829-.025-15.312 1.426-20.827 2.877a92.895 92.895 0 0 0-6.628 2.005 66.94 66.94 0 0 0-2.333.854h-.053l-.178.09-3.774 1.45-.045.017-.044.021a1.323 1.323 0 0 0-.074.041l-.019.009-.198.094c-.172.083-.421.206-.734.368-.627.325-1.514.808-2.568 1.448-2.107 1.278-4.893 3.19-7.603 5.722-5.41 5.053-10.754 12.861-9.372 23.064 1.376 10.162 8.072 15.618 15.1 17.285 6.888 1.634 14.413-.021 17.958-4.57 3.469-4.448 3.146-11.023-.153-15.472-1.671-2.26-4.18-3.99-7.34-4.534h-.001c-3.153-.539-6.818.113-10.829 2.216l-.003.002c-.49.26-.855.68-1.025 1.232-.177.55-.12 1.107.14 1.606a2.07 2.07 0 0 0 1.23 1.036l.008.002.008.003a2.08 2.08 0 0 0 1.595-.148l.003-.002c3.405-1.786 6.111-2.149 8.158-1.797 2.042.351 3.582 1.413 4.672 2.889l.002.002c2.239 3.012 2.344 7.648.213 10.377-1.001 1.284-2.943 2.407-5.45 3.027a17.75 17.75 0 0 1-8.21.032c-2.828-.672-5.51-2.014-7.625-4.21-2.109-2.191-3.702-5.281-4.28-9.538-1.136-8.393 3.183-14.857 8.07-19.426 4.634-4.327 9.538-6.673 9.989-6.885l.005-.002 3.612-1.395h.016l.18-.073h.001l.006-.003.028-.01.113-.045a64.357 64.357 0 0 1 2.204-.8 90.54 90.54 0 0 1 6.332-1.906c5.285-1.388 12.387-2.76 19.712-2.737 11.402.036 22.934 3.34 29.539 14.874 3.737 6.525 4.762 15.436 3.812 25.315-.948 9.859-3.85 20.563-7.829 30.57h-.001c-3.977 10.012-8.975 19.28-13.982 26.272-2.501 3.489-5.018 6.38-7.346 8.512-2.35 2.15-4.429 3.453-6.048 3.888-8.942 2.409-16.42 1.194-21.661-.618a33.858 33.858 0 0 1-6.087-2.787c-.7-.412-1.234-.767-1.59-1.015a14.588 14.588 0 0 1-.464-.337l-.028-.021-.021-.017-.003-.002v-.001h-.001l-.008-.007-.01-.007a2.118 2.118 0 0 0-1.383-.44l-.009.001h-.009c-.506.029-.968.22-1.344.577l-.002.001v.001l-.005.004-.023.022-.104.094c-.093.084-.237.21-.427.368-.38.318-.946.768-1.682 1.287a31.24 31.24 0 0 1-6.262 3.419c-5.296 2.139-12.628 3.333-20.892-.409-5.44-2.463-11.215-7.874-16.546-15.157-5.317-7.264-10.129-16.302-13.678-25.895-3.55-9.597-5.834-19.698-6.266-29.068-.433-9.38.992-17.948 4.776-24.55 6.603-11.527 18.122-14.837 29.517-14.874 5.039.052 7.828.122 10.823.657 3.006.537 6.247 1.547 12.165 3.54l.006.002c.367.12.769.16 1.176.059a2.099 2.099 0 0 0 1.012-.606l.001-.001.003-.003.01-.01.035-.037.134-.143c.117-.126.288-.31.505-.55a84.628 84.628 0 0 0 1.814-2.072 103.39 103.39 0 0 0 5.7-7.37c4.269-6.073 8.988-14.25 10.542-22.468 1.528-8.081.998-17.165.104-24.183a123.364 123.364 0 0 0-1.422-8.676 95.983 95.983 0 0 0-.695-3.18l-.043-.176-.011-.046-.003-.012-.001-.002a2.078 2.078 0 0 0-.764-1.158Zm-14.08 98.128Z"/></g></svg>