<?xml version="1.0" encoding="utf-8"?>
<svg xmlns="http://www.w3.org/2000/svg" xmlns:xlink="http://www.w3.org/1999/xlink">
  <symbol id="arrow-left" viewBox="0 0 20 20">
    <path d="M3.06107 18.0451L3.50191 17.4383L3.06107 18.0451ZM1.95491 16.9389L2.56168 16.4981L1.95491 16.9389ZM18.0451 16.9389L17.4383 16.4981L18.0451 16.9389ZM16.9389 18.0451L16.4981 17.4383L16.9389 18.0451ZM16.9389 1.95491L16.4981 2.56168L16.9389 1.95491ZM18.0451 3.06107L17.4383 3.50191L18.0451 3.06107ZM3.06107 1.95491L3.50191 2.56168L3.06107 1.95491ZM1.95491 3.06107L2.56168 3.50191L1.95491 3.06107ZM11.472 15.5327C11.7662 15.8243 12.2411 15.8222 12.5327 15.528C12.8243 15.2338 12.8222 14.7589 12.528 14.4673L11.472 15.5327ZM10.237 13.2527L9.70907 13.7854L10.237 13.2527ZM10.237 6.74731L10.765 7.28001L10.237 6.74731ZM12.528 5.5327C12.8222 5.24111 12.8243 4.76624 12.5327 4.47205C12.2411 4.17785 11.7662 4.17573 11.472 4.46732L12.528 5.5327ZM8.01989 10.3133L7.27591 10.4082V10.4082L8.01989 10.3133ZM8.01989 9.68667L7.27591 9.59184V9.59184L8.01989 9.68667ZM10 18.25C8.10843 18.25 6.74999 18.249 5.69804 18.135C4.66013 18.0225 4.00992 17.8074 3.50191 17.4383L2.62023 18.6518C3.42656 19.2377 4.37094 19.5 5.53648 19.6263C6.68798 19.751 8.14184 19.75 10 19.75V18.25ZM0.25 10C0.25 11.8582 0.248971 13.312 0.373728 14.4635C0.500006 15.6291 0.762324 16.5734 1.34815 17.3798L2.56168 16.4981C2.19259 15.9901 1.97745 15.3399 1.865 14.302C1.75103 13.25 1.75 11.8916 1.75 10H0.25ZM3.50191 17.4383C3.14111 17.1762 2.82382 16.8589 2.56168 16.4981L1.34815 17.3798C1.70281 17.8679 2.13209 18.2972 2.62023 18.6518L3.50191 17.4383ZM18.25 10C18.25 11.8916 18.249 13.25 18.135 14.302C18.0225 15.3399 17.8074 15.9901 17.4383 16.4981L18.6518 17.3798C19.2377 16.5734 19.5 15.6291 19.6263 14.4635C19.751 13.312 19.75 11.8582 19.75 10H18.25ZM10 19.75C11.8582 19.75 13.312 19.751 14.4635 19.6263C15.6291 19.5 16.5734 19.2377 17.3798 18.6518L16.4981 17.4383C15.9901 17.8074 15.3399 18.0225 14.302 18.135C13.25 18.249 11.8916 18.25 10 18.25V19.75ZM17.4383 16.4981C17.1762 16.8589 16.8589 17.1762 16.4981 17.4383L17.3798 18.6518C17.8679 18.2972 18.2972 17.8679 18.6518 17.3798L17.4383 16.4981ZM10 1.75C11.8916 1.75 13.25 1.75103 14.302 1.865C15.3399 1.97745 15.9901 2.19259 16.4981 2.56168L17.3798 1.34815C16.5734 0.762324 15.6291 0.500006 14.4635 0.373728C13.312 0.248971 11.8582 0.25 10 0.25V1.75ZM19.75 10C19.75 8.14184 19.751 6.68798 19.6263 5.53648C19.5 4.37094 19.2377 3.42656 18.6518 2.62023L17.4383 3.50191C17.8074 4.00992 18.0225 4.66013 18.135 5.69804C18.249 6.74999 18.25 8.10843 18.25 10H19.75ZM16.4981 2.56168C16.8589 2.82382 17.1762 3.14111 17.4383 3.50191L18.6518 2.62023C18.2972 2.13209 17.8679 1.70281 17.3798 1.34815L16.4981 2.56168ZM10 0.25C8.14184 0.25 6.68798 0.248971 5.53648 0.373728C4.37094 0.500006 3.42656 0.762324 2.62023 1.34815L3.50191 2.56168C4.00992 2.19259 4.66013 1.97745 5.69804 1.865C6.74999 1.75103 8.10843 1.75 10 1.75V0.25ZM1.75 10C1.75 8.10843 1.75103 6.74999 1.865 5.69804C1.97745 4.66013 2.19259 4.00992 2.56168 3.50191L1.34815 2.62023C0.762324 3.42656 0.500006 4.37094 0.373728 5.53648C0.248971 6.68798 0.25 8.14184 0.25 10H1.75ZM2.62023 1.34815C2.13209 1.70281 1.70281 2.13209 1.34815 2.62023L2.56168 3.50191C2.82382 3.14111 3.14111 2.82382 3.50191 2.56168L2.62023 1.34815ZM12.528 14.4673L10.765 12.72L9.70907 13.7854L11.472 15.5327L12.528 14.4673ZM10.765 7.28001L12.528 5.5327L11.472 4.46732L9.70907 6.21462L10.765 7.28001ZM10.765 12.72C10.0495 12.0109 9.5587 11.5228 9.2266 11.1093C8.904 10.7076 8.79333 10.4496 8.76387 10.2185L7.27591 10.4082C7.3547 11.0263 7.64963 11.5412 8.05706 12.0485C8.45498 12.544 9.01863 13.1011 9.70907 13.7854L10.765 12.72ZM9.70907 6.21462C9.01863 6.89893 8.45498 7.45597 8.05706 7.95146C7.64963 8.45879 7.3547 8.97373 7.27591 9.59184L8.76387 9.7815C8.79333 9.55042 8.904 9.2924 9.2266 8.89071C9.5587 8.47718 10.0495 7.98914 10.765 7.28001L9.70907 6.21462ZM8.76387 10.2185C8.74538 10.0734 8.74538 9.9266 8.76387 9.7815L7.27591 9.59184C7.24137 9.86287 7.24137 10.1371 7.27591 10.4082L8.76387 10.2185Z"/>
  </symbol>
  <symbol id="arrow-right" viewBox="0 0 20 20">
    <path d="M3.06107 18.0451L3.50191 17.4383L3.06107 18.0451ZM1.95491 16.9389L2.56168 16.4981L1.95491 16.9389ZM18.0451 16.9389L17.4383 16.4981L18.0451 16.9389ZM16.9389 18.0451L16.4981 17.4383L16.9389 18.0451ZM16.9389 1.95491L16.4981 2.56168L16.9389 1.95491ZM18.0451 3.06107L17.4383 3.50191L18.0451 3.06107ZM3.06107 1.95491L3.50191 2.56168L3.06107 1.95491ZM1.95491 3.06107L2.56168 3.50191L1.95491 3.06107ZM8.52796 4.46731C8.23376 4.17573 7.75889 4.17784 7.46731 4.47204C7.17573 4.76624 7.17784 5.24111 7.47204 5.53269L8.52796 4.46731ZM9.76297 6.74731L9.23501 7.28L9.76297 6.74731ZM9.76297 13.2527L10.2909 13.7854L9.76297 13.2527ZM7.47204 14.4673C7.17784 14.7589 7.17573 15.2338 7.46731 15.528C7.75889 15.8222 8.23376 15.8243 8.52796 15.5327L7.47204 14.4673ZM11.9801 9.68667L12.7241 9.59184L12.7241 9.59184L11.9801 9.68667ZM11.9801 10.3133L12.7241 10.4082V10.4082L11.9801 10.3133ZM10 18.25C8.10843 18.25 6.74999 18.249 5.69804 18.135C4.66013 18.0225 4.00992 17.8074 3.50191 17.4383L2.62023 18.6518C3.42656 19.2377 4.37094 19.5 5.53648 19.6263C6.68798 19.751 8.14184 19.75 10 19.75V18.25ZM0.25 10C0.25 11.8582 0.248971 13.312 0.373728 14.4635C0.500006 15.6291 0.762324 16.5734 1.34815 17.3798L2.56168 16.4981C2.19259 15.9901 1.97745 15.3399 1.865 14.302C1.75103 13.25 1.75 11.8916 1.75 10H0.25ZM3.50191 17.4383C3.14111 17.1762 2.82382 16.8589 2.56168 16.4981L1.34815 17.3798C1.70281 17.8679 2.13209 18.2972 2.62023 18.6518L3.50191 17.4383ZM18.25 10C18.25 11.8916 18.249 13.25 18.135 14.302C18.0225 15.3399 17.8074 15.9901 17.4383 16.4981L18.6518 17.3798C19.2377 16.5734 19.5 15.6291 19.6263 14.4635C19.751 13.312 19.75 11.8582 19.75 10H18.25ZM10 19.75C11.8582 19.75 13.312 19.751 14.4635 19.6263C15.6291 19.5 16.5734 19.2377 17.3798 18.6518L16.4981 17.4383C15.9901 17.8074 15.3399 18.0225 14.302 18.135C13.25 18.249 11.8916 18.25 10 18.25V19.75ZM17.4383 16.4981C17.1762 16.8589 16.8589 17.1762 16.4981 17.4383L17.3798 18.6518C17.8679 18.2972 18.2972 17.8679 18.6518 17.3798L17.4383 16.4981ZM10 1.75C11.8916 1.75 13.25 1.75103 14.302 1.865C15.3399 1.97745 15.9901 2.19259 16.4981 2.56168L17.3798 1.34815C16.5734 0.762324 15.6291 0.500006 14.4635 0.373728C13.312 0.248971 11.8582 0.25 10 0.25V1.75ZM19.75 10C19.75 8.14184 19.751 6.68798 19.6263 5.53648C19.5 4.37094 19.2377 3.42656 18.6518 2.62023L17.4383 3.50191C17.8074 4.00992 18.0225 4.66013 18.135 5.69804C18.249 6.74999 18.25 8.10843 18.25 10H19.75ZM16.4981 2.56168C16.8589 2.82382 17.1762 3.14111 17.4383 3.50191L18.6518 2.62023C18.2972 2.13209 17.8679 1.70281 17.3798 1.34815L16.4981 2.56168ZM10 0.25C8.14184 0.25 6.68798 0.248971 5.53648 0.373728C4.37094 0.500006 3.42656 0.762324 2.62023 1.34815L3.50191 2.56168C4.00992 2.19259 4.66013 1.97745 5.69804 1.865C6.74999 1.75103 8.10843 1.75 10 1.75V0.25ZM1.75 10C1.75 8.10843 1.75103 6.74999 1.865 5.69804C1.97745 4.66013 2.19259 4.00992 2.56168 3.50191L1.34815 2.62023C0.762324 3.42656 0.500006 4.37094 0.373728 5.53648C0.248971 6.68798 0.25 8.14184 0.25 10H1.75ZM2.62023 1.34815C2.13209 1.70281 1.70281 2.13209 1.34815 2.62023L2.56168 3.50191C2.82382 3.14111 3.14111 2.82382 3.50191 2.56168L2.62023 1.34815ZM7.47204 5.53269L9.23501 7.28L10.2909 6.21462L8.52796 4.46731L7.47204 5.53269ZM9.23501 12.72L7.47204 14.4673L8.52796 15.5327L10.2909 13.7854L9.23501 12.72ZM9.23501 7.28C9.9505 7.98914 10.4413 8.47718 10.7734 8.89071C11.096 9.2924 11.2067 9.55042 11.2361 9.7815L12.7241 9.59184C12.6453 8.97372 12.3504 8.45878 11.9429 7.95146C11.545 7.45597 10.9814 6.89892 10.2909 6.21462L9.23501 7.28ZM10.2909 13.7854C10.9814 13.1011 11.545 12.544 11.9429 12.0485C12.3504 11.5412 12.6453 11.0263 12.7241 10.4082L11.2361 10.2185C11.2067 10.4496 11.096 10.7076 10.7734 11.1093C10.4413 11.5228 9.9505 12.0109 9.23501 12.72L10.2909 13.7854ZM11.2361 9.7815C11.2546 9.92659 11.2546 10.0734 11.2361 10.2185L12.7241 10.4082C12.7586 10.1371 12.7586 9.86286 12.7241 9.59184L11.2361 9.7815Z"/>
  </symbol>
</svg>