<?xml version="1.0" encoding="utf-8"?>
<svg xmlns="http://www.w3.org/2000/svg" xmlns:xlink="http://www.w3.org/1999/xlink">
  <symbol id="whatsapp" viewBox="0 0 205 205">
    <path d="M121.83 131.19C96.5519 131.19 75.9865 110.612 75.9796 85.3268C75.9865 78.9173 81.204 73.7051 87.5978 73.7051C88.2552 73.7051 88.9056 73.7605 89.5284 73.8713C90.8985 74.0997 92.1994 74.5634 93.3965 75.2625C93.5695 75.3664 93.6871 75.5326 93.7148 75.7264L96.3858 92.5669C96.4204 92.7677 96.3582 92.9615 96.2267 93.1069C94.7528 94.7404 92.8706 95.9172 90.7739 96.5056L89.7637 96.7893L90.1442 97.7652C93.5902 106.542 100.607 113.554 109.388 117.015L110.364 117.402L110.647 116.392C111.236 114.294 112.412 112.412 114.045 110.937C114.163 110.827 114.322 110.771 114.481 110.771C114.516 110.771 114.55 110.771 114.592 110.778L131.427 113.45C131.628 113.485 131.794 113.595 131.898 113.768C132.59 114.966 133.053 116.274 133.289 117.644C133.399 118.254 133.448 118.897 133.448 119.569C133.448 125.971 128.237 131.183 121.83 131.19Z"/>
    <path d="M166.656 96.7476C165.292 81.3398 158.234 67.0464 146.782 56.5046C135.261 45.9004 120.314 40.0585 104.683 40.0585C70.3746 40.0585 42.4605 67.9808 42.4605 102.299C42.4605 113.817 45.6366 125.037 51.6498 134.81L38.2394 164.505L81.1763 159.93C88.6427 162.989 96.545 164.539 104.676 164.539C106.814 164.539 109.007 164.429 111.208 164.2C113.145 163.993 115.104 163.688 117.027 163.3C145.758 157.493 166.732 131.986 166.898 102.631V102.299C166.898 100.43 166.815 98.5611 166.649 96.7546L166.656 96.7476ZM82.8301 146.896L59.0747 149.429L66.1675 133.71L64.7489 131.806C64.6451 131.668 64.5413 131.53 64.4237 131.37C58.2651 122.863 55.0128 112.813 55.0128 102.306C55.0128 74.9095 77.2943 52.6214 104.683 52.6214C130.341 52.6214 152.09 72.6461 154.186 98.2082C154.297 99.5787 154.359 100.956 154.359 102.313C154.359 102.7 154.352 103.081 154.345 103.489C153.82 126.407 137.814 145.871 115.422 150.827C113.713 151.208 111.962 151.499 110.218 151.686C108.405 151.893 106.544 151.997 104.696 151.997C98.1158 151.997 91.722 150.724 85.681 148.204C85.0098 147.934 84.3524 147.643 83.7366 147.346L82.8371 146.91L82.8301 146.896Z"/>
  </symbol>
  <symbol id="telegram" viewBox="0 0 205 205">
    <path d="M40.9125 98.9211C41.1893 98.7826 41.4662 98.6511 41.7361 98.5265C46.4277 96.353 51.1815 94.318 55.9285 92.283C56.1845 92.283 56.6134 91.9854 56.8556 91.8885C57.2223 91.7292 57.5891 91.577 57.9559 91.4178C58.6617 91.1133 59.3676 90.8156 60.0664 90.511C61.4781 89.9088 62.8827 89.3067 64.2943 88.7045C67.1106 87.5002 69.9269 86.2958 72.7433 85.0845C78.3759 82.6757 84.0156 80.2599 89.6483 77.8511C95.2809 75.4423 100.92 73.0267 106.553 70.6179C112.186 68.2091 117.825 65.7935 123.458 63.3847C129.091 60.9759 134.73 58.5602 140.363 56.1515C141.615 55.6116 142.972 54.8086 144.314 54.5733C145.442 54.3726 146.542 53.985 147.677 53.7704C149.829 53.362 152.202 53.1959 154.265 54.0888C154.977 54.4003 155.635 54.8363 156.181 55.3831C158.797 57.9718 158.43 62.2219 157.877 65.8627C154.022 91.2379 150.168 116.62 146.307 141.995C145.781 145.477 145.061 149.298 142.314 151.499C139.989 153.361 136.682 153.568 133.81 152.779C130.938 151.983 128.406 150.315 125.921 148.675C115.618 141.85 105.308 135.025 95.0041 128.2C92.5545 126.58 89.8282 124.462 89.8559 121.521C89.8697 119.749 90.9284 118.17 92.0078 116.765C100.962 105.081 113.881 97.0522 123.493 85.9081C124.849 84.3369 125.915 81.499 124.053 80.5923C122.946 80.0524 121.673 80.7859 120.662 81.485C107.958 90.3103 95.2602 99.1424 82.5555 107.968C78.4106 110.847 74.0651 113.81 69.069 114.516C64.5989 115.152 60.1011 113.907 55.7762 112.633C52.1503 111.567 48.5312 110.473 44.926 109.345C43.0092 108.75 41.0302 108.106 39.5494 106.756C38.0685 105.407 37.2175 103.136 38.1102 101.337C38.6707 100.209 39.7571 99.4956 40.8988 98.9141L40.9125 98.9211Z"/>
  </symbol>
</svg>