<?xml version="1.0" encoding="utf-8"?>
<svg xmlns="http://www.w3.org/2000/svg" xmlns:xlink="http://www.w3.org/1999/xlink">
  <symbol id="vk" viewBox="0 0 40 40">
    <path d="M20.9825 27C13.466 27 9.17864 21.7447 9 13H12.7651C12.8888 19.4184 15.6646 22.1371 17.8632 22.6977V13H21.4085V18.5355C23.5796 18.2973 25.8607 15.7748 26.6302 13H30.1755C29.8855 14.4391 29.3075 15.8017 28.4776 17.0025C27.6477 18.2033 26.5837 19.2166 25.3523 19.979C26.7269 20.6756 27.941 21.6615 28.9145 22.8717C29.888 24.082 30.5988 25.489 31 27H27.0974C26.7373 25.6876 26.0054 24.5128 24.9934 23.6228C23.9814 22.7328 22.7343 22.1673 21.4085 21.997V27H20.9825Z" fill="#163B21"/>
  </symbol>
  <symbol id="instagram" viewBox="0 0 40 40">
    <path d="M20 11.8072C22.6506 11.8072 23.0121 11.8072 24.0964 11.8072C25.0602 11.8072 25.5422 12.0482 25.9036 12.1687C26.3855 12.4096 26.747 12.5301 27.1084 12.8916C27.4699 13.253 27.7108 13.6145 27.8313 14.0964C27.9518 14.4578 28.0723 14.9398 28.1928 15.9036C28.1928 16.988 28.1928 17.2289 28.1928 20C28.1928 22.7711 28.1928 23.0121 28.1928 24.0964C28.1928 25.0602 27.9518 25.5422 27.8313 25.9036C27.5904 26.3855 27.4699 26.747 27.1084 27.1084C26.747 27.4699 26.3855 27.7108 25.9036 27.8313C25.5422 27.9518 25.0602 28.0723 24.0964 28.1928C23.0121 28.1928 22.7711 28.1928 20 28.1928C17.2289 28.1928 16.988 28.1928 15.9036 28.1928C14.9398 28.1928 14.4578 27.9518 14.0964 27.8313C13.6145 27.5904 13.253 27.4699 12.8916 27.1084C12.5301 26.747 12.2892 26.3855 12.1687 25.9036C12.0482 25.5422 11.9277 25.0602 11.8072 24.0964C11.8072 23.0121 11.8072 22.7711 11.8072 20C11.8072 17.2289 11.8072 16.988 11.8072 15.9036C11.8072 14.9398 12.0482 14.4578 12.1687 14.0964C12.4096 13.6145 12.5301 13.253 12.8916 12.8916C13.253 12.5301 13.6145 12.2892 14.0964 12.1687C14.4578 12.0482 14.9398 11.9277 15.9036 11.8072C16.988 11.8072 17.3494 11.8072 20 11.8072ZM20 10C17.2289 10 16.988 10 15.9036 10C14.8193 10 14.0964 10.241 13.494 10.4819C12.8916 10.7229 12.2892 11.0843 11.6867 11.6867C11.0843 12.2892 10.8434 12.7711 10.4819 13.494C10.241 14.0964 10.1205 14.8193 10 15.9036C10 16.988 10 17.3494 10 20C10 22.7711 10 23.0121 10 24.0964C10 25.1807 10.241 25.9036 10.4819 26.506C10.7229 27.1084 11.0843 27.7108 11.6867 28.3133C12.2892 28.9157 12.7711 29.1566 13.494 29.5181C14.0964 29.759 14.8193 29.8795 15.9036 30C16.988 30 17.3494 30 20 30C22.6506 30 23.0121 30 24.0964 30C25.1807 30 25.9036 29.759 26.506 29.5181C27.1084 29.2771 27.7108 28.9157 28.3133 28.3133C28.9157 27.7108 29.1566 27.2289 29.5181 26.506C29.759 25.9036 29.8795 25.1807 30 24.0964C30 23.0121 30 22.6506 30 20C30 17.3494 30 16.988 30 15.9036C30 14.8193 29.759 14.0964 29.5181 13.494C29.2771 12.8916 28.9157 12.2892 28.3133 11.6867C27.7108 11.0843 27.2289 10.8434 26.506 10.4819C25.9036 10.241 25.1807 10.1205 24.0964 10C23.0121 10 22.7711 10 20 10Z" fill="#163B21"/>
    <path d="M20 14.8193C17.1084 14.8193 14.8193 17.1084 14.8193 20C14.8193 22.8916 17.1084 25.1807 20 25.1807C22.8916 25.1807 25.1807 22.8916 25.1807 20C25.1807 17.1084 22.8916 14.8193 20 14.8193ZM20 23.3735C18.1928 23.3735 16.6265 21.9277 16.6265 20C16.6265 18.1928 18.0723 16.6265 20 16.6265C21.8072 16.6265 23.3735 18.0723 23.3735 20C23.3735 21.8072 21.8072 23.3735 20 23.3735Z" fill="#163B21"/>
    <path d="M25.3012 15.9036C25.9666 15.9036 26.506 15.3642 26.506 14.6988C26.506 14.0334 25.9666 13.494 25.3012 13.494C24.6358 13.494 24.0964 14.0334 24.0964 14.6988C24.0964 15.3642 24.6358 15.9036 25.3012 15.9036Z" fill="#163B21"/>
  </symbol>
  <symbol id="whatsapp" viewBox="0 0 40 40">
    <path d="M27.9268 12.0625C25.9512 10.0937 23.3171 9 20.5366 9C14.7561 9 10.0732 13.6667 10.0732 19.4271C10.0732 21.25 10.5854 23.0729 11.4634 24.6042L10 30L15.561 28.5417C17.0976 29.3438 18.7805 29.7812 20.5366 29.7812C26.3171 29.7812 31 25.1146 31 19.3542C30.9268 16.6563 29.9024 14.0312 27.9268 12.0625ZM25.5854 23.1458C25.3659 23.7292 24.3415 24.3125 23.8293 24.3854C23.3902 24.4583 22.8049 24.4583 22.2195 24.3125C21.8537 24.1667 21.3415 24.0208 20.7561 23.7292C18.122 22.6354 16.439 20.0104 16.2927 19.7917C16.1463 19.6458 15.1951 18.4062 15.1951 17.0937C15.1951 15.7812 15.8537 15.1979 16.0732 14.9062C16.2927 14.6146 16.5854 14.6146 16.8049 14.6146C16.9512 14.6146 17.1707 14.6146 17.3171 14.6146C17.4634 14.6146 17.6829 14.5417 17.9024 15.0521C18.122 15.5625 18.6341 16.875 18.7073 16.9479C18.7805 17.0938 18.7805 17.2396 18.7073 17.3854C18.6341 17.5312 18.561 17.6771 18.4146 17.8229C18.2683 17.9687 18.1219 18.1875 18.0488 18.2604C17.9024 18.4062 17.7561 18.5521 17.9024 18.7708C18.0488 19.0625 18.561 19.8646 19.3659 20.5937C20.3902 21.4687 21.1951 21.7604 21.4878 21.9063C21.7805 22.0521 21.9268 21.9792 22.0732 21.8333C22.2195 21.6875 22.7317 21.1042 22.878 20.8125C23.0244 20.5208 23.2439 20.5938 23.4634 20.6667C23.6829 20.7396 25 21.3958 25.2195 21.5417C25.5122 21.6875 25.6585 21.7604 25.7317 21.8333C25.8049 22.0521 25.8049 22.5625 25.5854 23.1458Z" fill="#163B21"/>
  </symbol>
  <symbol id="telegram" viewBox="0 0 40 40">
    <path d="M28 12.6022L24.9946 28.2923C24.9946 28.2923 24.5741 29.3801 23.4189 28.8584L16.4846 23.3526L16.4524 23.3364C17.3891 22.4654 24.6524 15.7027 24.9698 15.3961C25.4613 14.9214 25.1562 14.6387 24.5856 14.9974L13.8568 22.053L9.71764 20.6108C9.71764 20.6108 9.06626 20.3708 9.00359 19.8491C8.9401 19.3265 9.73908 19.0439 9.73908 19.0439L26.6131 12.1889C26.6131 12.1889 28 11.5579 28 12.6022Z" fill="#163B21"/>
  </symbol>
  <symbol id="dzen" viewBox="0 0 40 40">
    <path d="M21.9286 21.9286C20.3571 23.55 20.2429 25.5714 20.1071 30C24.2357 30 27.0857 29.9857 28.5571 28.5571C29.9857 27.0857 30 24.1 30 20.1071C25.5714 20.25 23.55 20.3571 21.9286 21.9286ZM10 20.1071C10 24.1 10.0143 27.0857 11.4429 28.5571C12.9143 29.9857 15.7643 30 19.8929 30C19.75 25.5714 19.6429 23.55 18.0714 21.9286C16.45 20.3571 14.4286 20.2429 10 20.1071ZM19.8929 10C15.7714 10 12.9143 10.0143 11.4429 11.4429C10.0143 12.9143 10 15.9 10 19.8929C14.4286 19.75 16.45 19.6429 18.0714 18.0714C19.6429 16.45 19.7571 14.4286 19.8929 10ZM21.9286 18.0714C20.3571 16.45 20.2429 14.4286 20.1071 10C24.2357 10 27.0857 10.0143 28.5571 11.4429C29.9857 12.9143 30 15.9 30 19.8929C25.5714 19.75 23.55 19.6429 21.9286 18.0714Z" fill="#163B21"/>
  </symbol>
</svg>